<?xml version="1.0" encoding="UTF-8" standalone="no"?>
<!DOCTYPE svg PUBLIC "-//W3C//DTD SVG 1.1//EN" "http://www.w3.org/Graphics/SVG/1.1/DTD/svg11.dtd">
<svg version="1.1" xmlns="http://www.w3.org/2000/svg" xmlns:xlink="http://www.w3.org/1999/xlink" preserveAspectRatio="xMidYMid meet" viewBox="0 0 149 332" width="149" height="332"><defs><path d="M77.11 7.02L78.36 7.29L79.57 7.66L80.74 8.12L81.86 8.68L82.92 9.32L83.92 10.05L84.87 10.85L85.74 11.72L86.54 12.67L87.27 13.67L87.91 14.74L88.47 15.85L88.93 17.02L89.3 18.23L89.57 19.48L89.74 20.77L89.79 22.09L89.74 23.41L89.57 24.7L89.3 25.95L88.93 27.16L88.47 28.33L87.91 29.45L87.27 30.51L86.54 31.52L85.74 32.46L84.87 33.33L83.92 34.13L82.92 34.86L81.86 35.5L80.74 36.06L79.57 36.52L78.36 36.89L78.27 36.91L78.27 54.56L78.3 54.69L78.33 54.84L78.35 54.99L78.37 55.15L78.38 55.31L78.38 55.47L78.38 205.28L113.04 170.62L113.04 110.93L112.96 110.91L111.74 110.54L110.58 110.08L109.46 109.52L108.4 108.88L107.39 108.15L106.45 107.35L105.57 106.48L104.77 105.53L104.05 104.53L103.41 103.47L102.85 102.35L102.38 101.18L102.01 99.97L101.74 98.72L101.58 97.43L101.52 96.11L101.58 94.79L101.74 93.5L102.01 92.25L102.38 91.04L102.85 89.87L103.41 88.75L104.05 87.69L104.77 86.69L105.57 85.74L106.45 84.87L107.39 84.07L108.4 83.34L109.46 82.7L110.58 82.14L111.74 81.68L112.96 81.31L114.21 81.04L115.5 80.87L116.81 80.82L118.13 80.87L119.42 81.04L120.67 81.31L121.89 81.68L123.05 82.14L124.17 82.7L125.23 83.34L126.24 84.07L127.18 84.87L128.06 85.74L128.86 86.69L129.58 87.69L130.22 88.75L130.78 89.87L131.25 91.04L131.62 92.25L131.89 93.5L132.05 94.79L132.11 96.11L132.05 97.43L131.89 98.72L131.62 99.97L131.25 101.18L130.78 102.35L130.22 103.47L129.58 104.53L128.86 105.53L128.06 106.48L127.18 107.35L126.24 108.15L125.23 108.88L124.17 109.52L123.05 110.08L121.89 110.54L120.67 110.91L120.59 110.93L120.59 171.88L120.58 172.08L120.57 172.28L120.54 172.47L120.51 172.67L120.46 172.85L120.41 173.04L120.34 173.22L120.27 173.39L120.19 173.56L120.1 173.73L120.01 173.89L119.9 174.05L119.9 174.06L119.87 174.13L119.77 174.33L119.66 174.52L119.54 174.71L119.4 174.89L119.26 175.06L119.1 175.23L78.41 215.92L78.38 215.95L78.38 223.64L140.16 223.64L107.33 274.42L74.5 325.2L41.67 274.42L8.84 223.64L70.62 223.64L70.62 182.06L27.89 139.34L27.75 139.18L27.61 139.02L27.48 138.85L27.37 138.68L27.26 138.5L27.17 138.32L27.09 138.14L27.01 137.95L26.95 137.76L26.9 137.56L26.85 137.37L26.82 137.17L26.8 136.97L26.79 136.77L26.79 136.57L26.8 136.37L26.82 136.17L26.85 135.97L26.9 135.78L26.93 135.66L26.92 135.62L26.87 135.43L26.84 135.24L26.81 135.05L26.79 134.85L26.79 134.65L26.79 71.58L26.7 71.56L25.49 71.19L24.32 70.72L23.21 70.17L22.14 69.52L21.14 68.8L20.2 68L19.32 67.12L18.52 66.18L17.8 65.18L17.15 64.11L16.6 62.99L16.13 61.83L15.76 60.61L15.49 59.36L15.33 58.07L15.27 56.76L15.33 55.44L15.49 54.15L15.76 52.9L16.13 51.68L16.6 50.52L17.15 49.4L17.8 48.34L18.52 47.33L19.32 46.39L20.2 45.52L21.14 44.71L22.14 43.99L23.21 43.35L24.32 42.79L25.49 42.32L26.7 41.95L27.96 41.68L29.24 41.52L30.56 41.46L31.88 41.52L33.17 41.68L34.42 41.95L35.63 42.32L36.8 42.79L37.92 43.35L38.98 43.99L39.99 44.71L40.93 45.52L41.8 46.39L42.6 47.33L43.33 48.34L43.97 49.4L44.53 50.52L44.99 51.68L45.36 52.9L45.63 54.15L45.8 55.44L45.86 56.76L45.8 58.07L45.63 59.36L45.36 60.61L44.99 61.83L44.53 62.99L43.97 64.11L43.33 65.18L42.6 66.18L41.8 67.12L40.93 68L39.99 68.8L38.98 69.52L37.92 70.17L36.8 70.72L35.63 71.19L34.42 71.56L34.34 71.58L34.34 134.65L34.33 134.85L34.32 135.05L34.31 135.08L70.62 171.39L70.62 55.47L70.62 55.31L70.63 55.15L70.65 54.99L70.67 54.84L70.7 54.69L70.73 54.56L70.73 36.91L70.64 36.89L69.43 36.52L68.26 36.06L67.14 35.5L66.08 34.86L65.08 34.13L64.13 33.33L63.26 32.46L62.46 31.52L61.73 30.51L61.09 29.45L60.53 28.33L60.07 27.16L59.7 25.95L59.43 24.7L59.26 23.41L59.21 22.09L59.26 20.77L59.43 19.48L59.7 18.23L60.07 17.02L60.53 15.85L61.09 14.74L61.73 13.67L62.46 12.67L63.26 11.72L64.13 10.85L65.08 10.05L66.08 9.32L67.14 8.68L68.26 8.12L69.43 7.66L70.64 7.29L71.89 7.02L73.18 6.85L74.5 6.8L75.82 6.85L77.11 7.02Z" id="bZcgiIkr6"></path><path d="M66.24 312.45L61.25 304.73L87.75 304.73L82.76 312.45L66.24 312.45Z" id="b24PkqrGNY"></path></defs><g><g><g><g><use xlink:href="#bZcgiIkr6" opacity="1" fill="#1d1d1d" fill-opacity="1"></use></g><g><use xlink:href="#b24PkqrGNY" opacity="1" fill="#ffffff" fill-opacity="1"></use><g><use xlink:href="#b24PkqrGNY" opacity="1" fill-opacity="0" stroke="#333333" stroke-width="0.5" stroke-opacity="1"></use></g></g></g></g></g></svg>