<svg id="Camada_1" data-name="Camada 1" xmlns="http://www.w3.org/2000/svg" viewBox="0 0 211.49 155.99"><defs><style>.cls-1{fill:#191919;}.cls-2,.cls-3{fill:none;stroke:#191919;stroke-linecap:round;stroke-linejoin:bevel;}.cls-2{stroke-width:3px;}.cls-3{stroke-width:2px;}</style></defs><title>Prancheta 4</title><circle class="cls-1" cx="162.13" cy="35.33" r="7.19"/><circle class="cls-1" cx="187.8" cy="40.14" r="7.19"/><circle class="cls-1" cx="164.99" cy="76.2" r="7.19"/><polyline class="cls-2" points="26.89 14.51 93.97 14.51 26.89 140.68 93.97 140.68"/><polygon class="cls-3" points="56.33 85.3 78.63 140.68 29.12 140.68 56.33 85.3"/><line class="cls-3" x1="70.22" y1="115.01" x2="184.72" y2="42.52"/><polyline class="cls-3" points="93.97 99.98 127.47 99.98 160.09 78.76"/><polyline class="cls-3" points="110.62 89.37 124.79 59.01 157.81 38.42"/><path class="cls-1" d="M43.48,111.45c.68.21-1.23,4.41-.3,10.23a25.54,25.54,0,0,0,12.45,17.25c1.9,1,3.26,1.39,3.2,1.75-.1.56-3.51.27-9.58,0-5.7-.24-11.39-.84-17.09-.79-3.2,0-4.09.15-4.57-.54-1.48-2.15,4.64-7,10.47-17.67C41.19,116,42.78,111.23,43.48,111.45Z"/></svg>