<svg xmlns="http://www.w3.org/2000/svg" viewBox="0 0 1000 1000"><title>Prancheta 3</title><g id="Camada_1" data-name="Camada 1"><path d="M846.6,395.55A23.76,23.76,0,0,0,824.9,429L581.34,583.87l35.35-91,121-77a23.61,23.61,0,1,0-3.77-5.9L612,487.6a3.52,3.52,0,0,0-1.39,1.68L571.36,590.22l-158.85,101-44-98.14a3.53,3.53,0,0,0-2.21-1.93,3.5,3.5,0,0,0-2.9.43l-55,35.86a3.48,3.48,0,0,0-1.42,4L314.06,654c-2.47,3.6-5.19,7.75-8.21,12.51-24.25,38.28-57,89.94-41,108,3.66,4.14,11.1,5.1,26,7,23.65,3,37.31.63,55,0,41.44-1.46,65.62,8.21,68.78,3.42l36.21,4.82.46,0a3.5,3.5,0,0,0,3.2-4.93l-39.11-87.2.33-.18,93.8-59.66,120.78-2.8a3.42,3.42,0,0,0,1.79-.54l105.53-66.7a23.67,23.67,0,1,0-3.75-5.92l-104.7,66.19-108.23,2.5L828.66,434.86a23.75,23.75,0,1,0,17.94-39.31Zm-90.82-13.41a17.44,17.44,0,1,1-17.43,17.43A17.43,17.43,0,0,1,755.78,382.14ZM445.54,782l-36.3-4.83c-3.8-3-9.21-6.71-15.39-11.64-8.81-7-42.23-33.61-54-65-13.3-35.44,4.73-67-3-70-1-.39-4.8-1.17-17.7,16.32l-4.71-15,49.35-32.17ZM755.78,534.8a17.44,17.44,0,1,1-17.43,17.44A17.44,17.44,0,0,1,755.78,534.8Zm90.67-98.5a17.44,17.44,0,1,1,17.44-17.44A17.44,17.44,0,0,1,846.45,436.3Z"/><path d="M535.1,764.07h-277l289-451.4a41.31,41.31,0,0,0-12.52-57.05h0a41.07,41.07,0,0,0-21.43-6.51c-.26,0-.52,0-.78,0H188a18.5,18.5,0,0,0,0,37H466L177.8,736.31a41.3,41.3,0,0,0,12.52,57.05h0a40.93,40.93,0,0,0,14.37,5.75,18.27,18.27,0,0,0,8.25,2H535.1a18.5,18.5,0,0,0,0-37Z"/></g></svg>