<svg width="640" height="160" viewBox="0 0 640 160" fill="none" xmlns="http://www.w3.org/2000/svg">
<g filter="url(#filter0_d_408:103)">
<path d="M142.812 54.9632C142.115 54.9636 141.428 55.1527 140.815 55.5134C140.202 55.874 139.682 56.3949 139.302 57.0285C138.922 57.6622 138.695 58.3886 138.64 59.1418C138.585 59.895 138.704 60.6512 138.988 61.3416L96.0582 90.9162L102.291 73.543L123.618 58.8426C124.308 59.6997 125.272 60.2423 126.317 60.3617C127.361 60.4812 128.408 60.1685 129.249 59.4865C130.089 58.8045 130.66 57.8035 130.848 56.6844C131.036 55.5652 130.826 54.4106 130.26 53.4521C129.695 52.4936 128.816 51.8021 127.799 51.5163C126.783 51.2305 125.704 51.3715 124.78 51.911C123.855 52.4505 123.153 53.3486 122.815 54.4253C122.476 55.5019 122.525 56.6775 122.953 57.7162L101.457 72.5369C101.346 72.6133 101.261 72.7264 101.214 72.8595L94.3009 92.1285L66.3005 111.411L58.5451 92.6745C58.5082 92.5867 58.4543 92.5086 58.387 92.4454C58.3198 92.3822 58.2407 92.3354 58.1553 92.3082C58.0698 92.2811 57.98 92.2741 57.8918 92.2879C57.8037 92.3017 57.7193 92.3359 57.6445 92.3881L47.9503 99.2343C47.8371 99.3143 47.7513 99.4324 47.7061 99.5704C47.6608 99.7083 47.6587 99.8586 47.7 99.998L48.9514 104.309C48.5161 104.998 48.0349 105.788 47.5026 106.697C43.2301 114.005 37.4559 123.87 40.276 127.316C40.9211 128.108 42.2342 128.29 44.8587 128.652C49.0272 129.225 51.4349 128.773 54.5529 128.652C61.857 128.374 66.1207 130.22 66.6759 129.305L73.06 130.225C73.1688 130.241 73.2794 130.225 73.3804 130.178C73.4815 130.132 73.5692 130.057 73.6346 129.962C73.7004 129.867 73.7414 129.754 73.7535 129.636C73.7656 129.518 73.7483 129.398 73.7033 129.29L66.8099 112.642C66.8304 112.632 66.8504 112.62 66.8698 112.608L83.4011 101.218L104.688 100.693C104.8 100.691 104.909 100.655 105.003 100.59L123.604 87.8558C124.292 88.7153 125.254 89.2614 126.298 89.3844C127.342 89.5075 128.39 89.1985 129.233 88.5194C130.075 87.8403 130.65 86.8413 130.84 85.7227C131.031 84.6042 130.825 83.4489 130.262 82.4884C129.699 81.528 128.822 80.8335 127.807 80.5442C126.791 80.2548 125.712 80.3921 124.786 80.9285C123.86 81.4648 123.155 82.3606 122.813 83.4361C122.472 84.5116 122.518 85.6874 122.943 86.7275L104.496 99.3565L85.4192 99.8357L139.65 62.468C140.11 63.0417 140.695 63.4812 141.351 63.7463C142.008 64.0114 142.716 64.0936 143.41 63.9853C144.104 63.877 144.761 63.5817 145.323 63.1264C145.884 62.6712 146.33 62.0707 146.621 61.3799C146.912 60.6892 147.038 59.9303 146.988 59.1729C146.938 58.4156 146.713 57.684 146.334 57.0453C145.955 56.4066 145.434 55.8813 144.819 55.5175C144.203 55.1537 143.513 54.9631 142.812 54.9632V54.9632ZM126.806 52.403C127.414 52.403 128.009 52.5983 128.514 52.9642C129.02 53.33 129.414 53.85 129.646 54.4584C129.879 55.0668 129.94 55.7363 129.821 56.3821C129.703 57.028 129.41 57.6213 128.98 58.0869C128.55 58.5526 128.002 58.8697 127.406 58.9981C126.81 59.1266 126.192 59.0607 125.63 58.8087C125.068 58.5567 124.588 58.1299 124.251 57.5824C123.913 57.0348 123.732 56.3911 123.732 55.7326C123.732 55.2953 123.812 54.8622 123.966 54.4581C124.12 54.054 124.347 53.6869 124.632 53.3777C124.918 53.0684 125.257 52.8232 125.63 52.656C126.003 52.4887 126.403 52.4028 126.806 52.403V52.403ZM72.1223 128.746L65.7189 127.826C65.0491 127.253 64.0938 126.543 63.0045 125.602C61.4516 124.265 55.5629 119.185 53.4865 113.192C51.1423 106.426 54.3202 100.401 52.9578 99.8281C52.7815 99.7536 52.1117 99.6047 49.838 102.944L49.0078 100.08L57.7062 93.9384L72.1223 128.746ZM126.806 81.548C127.414 81.548 128.009 81.7433 128.514 82.1092C129.02 82.475 129.414 82.995 129.646 83.6034C129.879 84.2118 129.94 84.8813 129.821 85.5271C129.703 86.173 129.41 86.7663 128.98 87.2319C128.55 87.6976 128.002 88.0147 127.406 88.1431C126.81 88.2716 126.192 88.2057 125.63 87.9537C125.068 87.7017 124.588 87.2749 124.251 86.7274C123.913 86.1798 123.732 85.5361 123.732 84.8776C123.732 84.4402 123.812 84.0072 123.966 83.6031C124.12 83.199 124.347 82.8319 124.632 82.5227C124.918 82.2134 125.257 81.9682 125.63 81.801C126.003 81.6337 126.403 81.5478 126.806 81.548V81.548ZM142.786 62.743C142.178 62.743 141.584 62.5476 141.078 62.1817C140.572 61.8157 140.178 61.2956 139.946 60.6871C139.713 60.0786 139.652 59.4091 139.771 58.7631C139.89 58.1172 140.183 57.524 140.613 57.0584C141.043 56.5928 141.591 56.2759 142.187 56.1476C142.784 56.0194 143.402 56.0856 143.964 56.3379C144.525 56.5902 145.005 57.0172 145.343 57.565C145.68 58.1128 145.86 58.7567 145.86 59.4153C145.86 59.8525 145.78 60.2853 145.626 60.6892C145.471 61.093 145.245 61.46 144.959 61.769C144.674 62.078 144.335 62.3231 143.962 62.4902C143.589 62.6573 143.19 62.7432 142.786 62.743V62.743Z" fill="#052538"/>
<path d="M129.88 84.8775C129.88 85.5361 129.7 86.1799 129.362 86.7275C129.024 87.2751 128.544 87.7018 127.982 87.9538C127.421 88.2057 126.802 88.2715 126.206 88.1429C125.61 88.0143 125.062 87.697 124.632 87.2312C124.202 86.7653 123.91 86.1719 123.791 85.5259C123.673 84.8799 123.734 84.2104 123.967 83.602C124.2 82.9936 124.594 82.4738 125.1 82.1081C125.606 81.7425 126.2 81.5476 126.808 81.5479C127.212 81.5479 127.611 81.6341 127.984 81.8014C128.357 81.9688 128.696 82.2141 128.981 82.5233C129.266 82.8325 129.493 83.1995 129.647 83.6035C129.801 84.0074 129.881 84.4403 129.88 84.8775Z" fill="#052538"/>
<path d="M145.859 59.4152C145.859 60.0738 145.679 60.7175 145.341 61.265C145.003 61.8126 144.523 62.2393 143.961 62.4913C143.4 62.7433 142.781 62.8093 142.185 62.6808C141.589 62.5523 141.041 62.2352 140.611 61.7696C140.181 61.3039 139.889 60.7107 139.77 60.0648C139.651 59.4189 139.712 58.7495 139.945 58.1411C140.178 57.5327 140.572 57.0127 141.077 56.6468C141.583 56.281 142.177 56.0857 142.785 56.0857C143.189 56.0854 143.588 56.1714 143.962 56.3386C144.335 56.5059 144.674 56.7511 144.959 57.0603C145.245 57.3696 145.471 57.7367 145.625 58.1408C145.78 58.5448 145.859 58.9779 145.859 59.4152V59.4152Z" fill="#052538"/>
<path d="M129.88 55.7326C129.88 56.3912 129.7 57.035 129.362 57.5826C129.024 58.1301 128.544 58.5569 127.982 58.8088C127.421 59.0608 126.802 59.1266 126.206 58.998C125.61 58.8694 125.062 58.5521 124.632 58.0862C124.202 57.6204 123.91 57.0269 123.791 56.3809C123.673 55.735 123.734 55.0654 123.967 54.4571C124.2 53.8487 124.594 53.3288 125.1 52.9632C125.606 52.5976 126.2 52.4026 126.808 52.403C127.212 52.403 127.611 52.4891 127.984 52.6565C128.357 52.8238 128.696 53.0691 128.981 53.3783C129.266 53.6875 129.493 54.0546 129.647 54.4585C129.801 54.8625 129.881 55.2954 129.88 55.7326Z" fill="#052538"/>
<path d="M89.4382 125.321H40.6147L91.5533 39.1421C92.593 37.3798 92.9439 35.2423 92.5287 33.1998C92.1135 31.1572 90.9664 29.377 89.3395 28.2505V28.2505C88.2127 27.4634 86.9063 27.0305 85.5658 27C85.5182 27 85.4741 27 85.4283 27H28.2608C27.396 27 26.5666 27.3721 25.9551 28.0345C25.3435 28.6968 25 29.5952 25 30.5319C25 31.4686 25.3435 32.367 25.9551 33.0294C26.5666 33.6917 27.396 34.0638 28.2608 34.0638H77.2605L26.4612 120.021C25.4231 121.782 25.0725 123.916 25.4862 125.957C25.9 127.997 27.0443 129.776 28.6679 130.903V130.903C29.4407 131.439 30.3 131.812 31.2008 132.003C31.6514 132.251 32.1493 132.382 32.6549 132.385H89.4382C90.303 132.385 91.1324 132.013 91.7439 131.35C92.3554 130.688 92.699 129.789 92.699 128.853C92.699 127.916 92.3554 127.018 91.7439 126.355C91.1324 125.693 90.303 125.321 89.4382 125.321V125.321Z" fill="#052538"/>
</g>
<g filter="url(#filter1_d_408:103)">
<path d="M183.656 132C182.006 132 180.215 131.859 178.283 131.577C176.352 131.335 174.44 130.792 172.549 129.946C170.657 129.1 168.826 127.912 167.055 126.381C165.325 124.811 163.775 122.757 162.407 120.219C161.079 117.682 160.012 114.56 159.207 110.855C158.402 107.109 158 102.659 158 97.5035V60.9528C158 55.7572 158.402 51.3268 159.207 47.6617C160.052 43.9563 161.159 40.855 162.528 38.3579C163.896 35.8205 165.445 33.8067 167.176 32.3165C168.947 30.8262 170.778 29.6985 172.669 28.9333C174.601 28.1277 176.513 27.6041 178.404 27.3625C180.296 27.1208 182.046 27 183.656 27C185.185 27 186.876 27.1208 188.727 27.3625C190.619 27.5639 192.49 28.0472 194.341 28.8124C196.233 29.5374 198.064 30.645 199.835 32.1352C201.605 33.5852 203.175 35.5788 204.543 38.1162C205.912 40.6133 206.998 43.7348 207.803 47.4804C208.648 51.1858 209.071 55.6766 209.071 60.9528V97.5035C209.071 102.619 208.648 107.029 207.803 110.734C206.958 114.399 205.851 117.521 204.483 120.098C203.115 122.636 201.525 124.69 199.714 126.261C197.943 127.791 196.112 128.999 194.22 129.886C192.369 130.731 190.518 131.295 188.667 131.577C186.815 131.859 185.145 132 183.656 132ZM183.656 120.219C185.185 120.219 186.514 119.957 187.64 119.434C188.808 118.91 189.753 118.004 190.478 116.715C191.242 115.426 191.806 113.735 192.168 111.64C192.57 109.506 192.772 106.827 192.772 103.605V56.6634C192.772 53.3608 192.57 50.6018 192.168 48.3867C191.806 46.1715 191.242 44.3993 190.478 43.0702C189.753 41.7008 188.808 40.7342 187.64 40.1703C186.514 39.6064 185.185 39.3245 183.656 39.3245C182.087 39.3245 180.718 39.6064 179.551 40.1703C178.384 40.7342 177.418 41.7008 176.654 43.0702C175.889 44.3993 175.305 46.1715 174.903 48.3867C174.541 50.6018 174.36 53.3608 174.36 56.6634V103.605C174.36 106.827 174.541 109.506 174.903 111.64C175.305 113.735 175.889 115.426 176.654 116.715C177.418 118.004 178.384 118.91 179.551 119.434C180.718 119.957 182.087 120.219 183.656 120.219Z" fill="#052538"/>
<path d="M246.076 132C244.466 132 242.716 131.859 240.824 131.577C238.973 131.335 237.101 130.792 235.21 129.946C233.359 129.1 231.568 127.912 229.837 126.381C228.147 124.811 226.638 122.757 225.31 120.219C224.022 117.682 222.976 114.56 222.171 110.855C221.406 107.109 221.024 102.659 221.024 97.5035V60.9528C221.024 55.7572 221.426 51.3268 222.231 47.6617C223.036 43.9563 224.102 40.855 225.43 38.3579C226.759 35.8205 228.288 33.8067 230.018 32.3165C231.749 30.8262 233.54 29.6985 235.391 28.9333C237.242 28.1277 239.073 27.6041 240.885 27.3625C242.736 27.1208 244.446 27 246.016 27C250.121 27 253.542 27.584 256.278 28.752C259.055 29.8797 261.269 31.4505 262.919 33.4643C264.609 35.4379 265.796 37.7537 266.48 40.412C267.205 43.0702 267.567 45.8895 267.567 48.87C267.567 51.0852 267.446 53.1392 267.205 55.0322C267.003 56.8849 266.682 58.939 266.239 61.1945H253.562V55.9384C253.562 50.2595 252.938 46.0104 251.69 43.191C250.443 40.3717 248.612 38.962 246.197 38.962C244.748 38.962 243.48 39.244 242.394 39.8078C241.307 40.3717 240.402 41.3383 239.677 42.7077C238.953 44.0368 238.389 45.809 237.987 48.0242C237.625 50.2394 237.444 52.9983 237.444 56.3009V103.424C237.444 106.646 237.584 109.325 237.866 111.459C238.188 113.594 238.691 115.306 239.375 116.594C240.059 117.883 240.945 118.81 242.031 119.373C243.158 119.897 244.507 120.159 246.076 120.159C247.082 120.159 248.048 119.937 248.974 119.494C249.899 119.011 250.704 118.286 251.388 117.319C252.113 116.312 252.676 115.064 253.079 113.574C253.521 112.043 253.743 110.251 253.743 108.197V98.1076H268.05V107.653C268.05 115.95 266.158 122.072 262.375 126.019C258.592 129.966 253.159 131.96 246.076 132Z" fill="#052538"/>
<path d="M302.58 132C300.97 132 299.22 131.859 297.328 131.577C295.477 131.335 293.605 130.792 291.714 129.946C289.863 129.1 288.072 127.912 286.341 126.381C284.651 124.811 283.142 122.757 281.814 120.219C280.526 117.682 279.479 114.56 278.675 110.855C277.91 107.109 277.528 102.659 277.528 97.5035V60.9528C277.528 55.7572 277.93 51.3268 278.735 47.6617C279.54 43.9563 280.606 40.855 281.934 38.3579C283.262 35.8205 284.792 33.8067 286.522 32.3165C288.253 30.8262 290.044 29.6985 291.895 28.9333C293.746 28.1277 295.577 27.6041 297.388 27.3625C299.24 27.1208 300.95 27 302.52 27C306.625 27 310.045 27.584 312.782 28.752C315.559 29.8797 317.773 31.4505 319.423 33.4643C321.113 35.4379 322.3 37.7537 322.984 40.412C323.709 43.0702 324.071 45.8895 324.071 48.87C324.071 51.0852 323.95 53.1392 323.709 55.0322C323.507 56.8849 323.185 58.939 322.743 61.1945H310.066V55.9384C310.066 50.2595 309.442 46.0104 308.194 43.191C306.947 40.3717 305.115 38.962 302.701 38.962C301.252 38.962 299.984 39.244 298.898 39.8078C297.811 40.3717 296.906 41.3383 296.181 42.7077C295.457 44.0368 294.893 45.809 294.491 48.0242C294.129 50.2394 293.948 52.9983 293.948 56.3009V103.424C293.948 106.646 294.088 109.325 294.37 111.459C294.692 113.594 295.195 115.306 295.879 116.594C296.563 117.883 297.449 118.81 298.535 119.373C299.662 119.897 301.01 120.159 302.58 120.159C303.586 120.159 304.552 119.937 305.478 119.494C306.403 119.011 307.208 118.286 307.892 117.319C308.617 116.312 309.18 115.064 309.583 113.574C310.025 112.043 310.247 110.251 310.247 108.197V98.1076H324.554V107.653C324.554 115.95 322.662 122.072 318.879 126.019C315.096 129.966 309.663 131.96 302.58 132Z" fill="#052538"/>
<path d="M336.869 27.9062H352.504V71.1024H371.037V27.9062H386.672V131.094H371.037V83.4269H352.504V131.094H336.869V27.9062Z" fill="#052538"/>
<path d="M404.48 27.9062H442.693V40.2307H420.115V71.1024H437.562V83.4269H420.115V118.769H443.297V131.094H404.48V27.9062Z" fill="#052538"/>
<path d="M465.934 27.9062H483.924L503 131.094H487.184L484.346 112.607H465.512L462.795 131.094H446.919L465.934 27.9062ZM482.535 100.826L475.291 49.4137H474.627L467.323 100.826H482.535Z" fill="#052538"/>
<path d="M513.021 27.9062H529.984C531.916 27.9062 534.029 27.9868 536.323 28.1479C538.657 28.309 540.971 28.7117 543.265 29.3562C545.599 29.9603 547.833 30.8867 549.966 32.1352C552.139 33.3838 554.051 35.0955 555.701 37.2704C557.391 39.4453 558.739 42.1841 559.745 45.4868C560.752 48.7491 561.255 52.7163 561.255 57.3884V59.9862C561.255 67.84 560.128 74.244 557.874 79.1979C555.62 84.1116 552.3 87.6559 547.913 89.8308L564.454 131.094H547.913L534.21 92.4891H528.354V131.094H513.021V27.9062ZM530.709 81.1916C533.445 81.1916 535.759 80.8895 537.651 80.2854C539.542 79.6812 541.072 78.6743 542.239 77.2647C543.406 75.8147 544.251 73.9217 544.774 71.5857C545.297 69.2094 545.559 66.2894 545.559 62.8257V54.6697C545.559 52.0115 545.318 49.7158 544.835 47.7825C544.352 45.8493 543.527 44.2583 542.36 43.0098C541.233 41.7612 539.724 40.8349 537.832 40.2307C535.941 39.6266 533.566 39.3245 530.709 39.3245H528.354V81.1916H530.709Z" fill="#052538"/>
<path d="M585.824 40.2307H569.223V27.9062H618V40.2307H601.459V131.094H585.824V40.2307Z" fill="#052538"/>
</g>
<defs>
<filter id="filter0_d_408:103" x="25" y="27" width="130" height="113.385" filterUnits="userSpaceOnUse" color-interpolation-filters="sRGB">
<feFlood flood-opacity="0" result="BackgroundImageFix"/>
<feColorMatrix in="SourceAlpha" type="matrix" values="0 0 0 0 0 0 0 0 0 0 0 0 0 0 0 0 0 0 127 0" result="hardAlpha"/>
<feOffset dx="8" dy="8"/>
<feComposite in2="hardAlpha" operator="out"/>
<feColorMatrix type="matrix" values="0 0 0 0 1 0 0 0 0 0.666667 0 0 0 0 0.247059 0 0 0 1 0"/>
<feBlend mode="normal" in2="BackgroundImageFix" result="effect1_dropShadow_408:103"/>
<feBlend mode="normal" in="SourceGraphic" in2="effect1_dropShadow_408:103" result="shape"/>
</filter>
<filter id="filter1_d_408:103" x="158" y="27" width="468" height="113" filterUnits="userSpaceOnUse" color-interpolation-filters="sRGB">
<feFlood flood-opacity="0" result="BackgroundImageFix"/>
<feColorMatrix in="SourceAlpha" type="matrix" values="0 0 0 0 0 0 0 0 0 0 0 0 0 0 0 0 0 0 127 0" result="hardAlpha"/>
<feOffset dx="8" dy="8"/>
<feComposite in2="hardAlpha" operator="out"/>
<feColorMatrix type="matrix" values="0 0 0 0 1 0 0 0 0 0.666667 0 0 0 0 0.247059 0 0 0 1 0"/>
<feBlend mode="normal" in2="BackgroundImageFix" result="effect1_dropShadow_408:103"/>
<feBlend mode="normal" in="SourceGraphic" in2="effect1_dropShadow_408:103" result="shape"/>
</filter>
</defs>
</svg>
