<svg width="668" height="15" viewBox="0 0 668 15" fill="none" xmlns="http://www.w3.org/2000/svg">
<path d="M295.877 11.2592C307.003 11.2592 321.649 2.5185 338.268 2.5185C346.999 2.5185 349.816 3.70368 356.154 6.2222C369.11 11.2592 386.151 8.74071 400.516 6.51849C409.952 5.03701 417.698 2.2222 429.669 2.5185C441.78 2.81479 452.625 6.07405 457.554 7.85183C466.004 10.9629 488.819 10.8148 499.381 9.77775C508.535 8.88886 515.155 6.51849 525.717 6.2222C543.885 5.62961 554.447 5.48146 570.08 8.14812C578.389 9.48146 587.261 11.4074 596.416 11.4074C607.964 11.4074 618.104 6.96294 630.356 6.96294C637.539 6.96294 643.595 7.25924 650.214 8.44442C655.988 9.48146 659.791 11.8518 665.283 12.8889" stroke="#FFD07E" stroke-width="4" stroke-linecap="round" stroke-linejoin="round"/>
<path d="M2.09863 12.1481C12.0978 7.40738 26.0403 2.5185 42.6587 2.5185C51.3904 2.5185 54.207 3.70368 60.5445 6.2222C73.5012 11.2592 90.5421 8.74071 104.907 6.51849C114.343 5.03701 122.089 2.2222 134.06 2.5185C146.171 2.81479 157.015 6.07405 161.945 7.85183C170.395 10.9629 193.21 10.8148 203.772 9.77775C212.926 8.88886 219.546 6.5185 230.108 6.2222C248.276 5.62961 258.838 5.48146 274.471 8.14812C282.78 9.48146 286.723 11.2592 295.736 11.2592" stroke="#FFD07E" stroke-width="4" stroke-linecap="round" stroke-linejoin="round"/>
</svg>
