<?xml version="1.0" standalone="no"?>
<!DOCTYPE svg PUBLIC "-//W3C//DTD SVG 20010904//EN"
 "http://www.w3.org/TR/2001/REC-SVG-20010904/DTD/svg10.dtd">
<svg version="1.0" xmlns="http://www.w3.org/2000/svg"
 width="700.000000pt" height="700.000000pt" viewBox="0 0 700.000000 700.000000"
 preserveAspectRatio="xMidYMid meet">
<metadata>
Created by potrace 1.11, written by Peter Selinger 2001-2013
</metadata>
<g transform="translate(0.000000,700.000000) scale(0.100000,-0.100000)"
fill="#000000" stroke="none">
<path d="M1185 5701 c-12 -11 -3 -63 24 -141 16 -47 82 -247 146 -445 64 -198
120 -369 124 -380 5 -11 24 -69 44 -130 19 -60 69 -213 110 -340 41 -126 143
-439 226 -695 84 -256 160 -490 171 -520 16 -49 232 -710 377 -1155 95 -293
97 -298 133 -322 32 -22 42 -23 239 -23 188 0 209 2 239 20 18 11 35 28 38 38
3 9 10 26 14 37 5 11 20 52 33 90 14 39 33 93 43 120 11 28 19 52 20 55 0 3 3
12 7 20 3 8 49 137 102 285 53 149 103 287 111 308 23 61 17 114 -32 252 -25
72 -53 155 -63 185 -11 30 -60 174 -111 320 -50 146 -96 276 -100 290 -4 14
-47 138 -95 275 -48 138 -98 282 -111 320 -13 39 -33 97 -45 130 -11 33 -22
65 -23 70 -2 6 -6 17 -9 25 -4 8 -50 141 -103 295 -52 154 -118 345 -146 425
-27 80 -67 197 -88 260 -22 63 -50 146 -64 184 -15 41 -22 74 -17 80 10 13 -2
50 -21 62 -13 9 -1165 14 -1173 5z"/>
<path d="M3089 5695 c-49 -26 -51 -48 -51 -424 0 -312 2 -352 17 -379 38 -63
6 -60 635 -63 512 -2 513 -2 524 -76 3 -16 -158 -500 -339 -1023 -31 -91 -63
-185 -70 -210 -8 -25 -32 -97 -54 -160 -33 -97 -316 -927 -397 -1170 -14 -41
-45 -131 -68 -200 -121 -352 -119 -344 -102 -384 10 -23 26 -41 45 -49 23 -10
302 -13 1290 -12 l1260 0 23 23 23 23 0 396 0 396 -25 18 c-23 17 -65 18 -535
24 -320 4 -520 10 -537 16 -41 17 -51 57 -28 126 10 32 59 186 110 343 50 157
98 303 105 325 8 22 55 168 105 325 51 157 102 317 115 355 39 119 288 890
357 1105 22 69 50 157 63 195 63 191 105 323 110 353 7 42 -25 107 -65 127
-25 13 -177 15 -1257 15 -1041 -1 -1232 -3 -1254 -15z"/>
</g>
</svg>
