<?xml version="1.0" encoding="UTF-8" standalone="no"?>
<!DOCTYPE svg PUBLIC "-//W3C//DTD SVG 1.1//EN" "http://www.w3.org/Graphics/SVG/1.1/DTD/svg11.dtd">
<svg version="1.1" xmlns="http://www.w3.org/2000/svg" xmlns:xlink="http://www.w3.org/1999/xlink" preserveAspectRatio="xMidYMid meet" viewBox="0 0 640 640" width="640" height="640"><defs><path d="M321.15 174.63L322.42 174.98L323.64 175.47L324.8 176.08L325.88 176.81L326.88 177.64L327.79 178.56L328.6 179.58L329.31 180.68L329.91 181.86L330.39 183.1L330.74 184.4L330.96 185.76L331.03 187.15L330.96 188.55L330.74 189.9L330.39 191.21L329.91 192.45L329.31 193.63L328.6 194.73L327.79 195.75L326.88 196.67L325.88 197.5L324.8 198.23L323.64 198.84L322.42 199.33L321.15 199.68L320.16 199.85L320.16 318.5L320.16 318.52L320.16 318.54L320.16 355.47L369.99 321.58L369.99 245.93L369.09 245.78L367.82 245.42L366.6 244.93L365.44 244.32L364.36 243.6L363.36 242.77L362.45 241.84L361.63 240.82L360.92 239.72L360.33 238.54L359.85 237.3L359.5 236L359.28 234.64L359.2 233.25L359.28 231.85L359.5 230.5L359.85 229.2L360.33 227.95L360.92 226.78L361.63 225.68L362.45 224.66L363.36 223.73L364.36 222.9L365.44 222.18L366.6 221.57L367.82 221.08L369.09 220.72L370.42 220.5L371.79 220.42L373.16 220.5L374.49 220.72L375.77 221.08L376.99 221.57L378.14 222.18L379.22 222.9L380.22 223.73L381.14 224.66L381.95 225.68L382.66 226.78L383.26 227.95L383.74 229.2L384.09 230.5L384.31 231.85L384.38 233.25L384.31 234.64L384.09 236L383.74 237.3L383.26 238.54L382.66 239.72L381.95 240.82L381.14 241.84L380.22 242.77L379.22 243.6L378.14 244.32L376.99 244.93L375.77 245.42L374.49 245.78L373.42 245.96L373.42 322.61L373.42 322.62L373.42 322.65L373.41 322.75L373.4 322.85L373.39 322.96L373.37 323.06L373.34 323.16L373.31 323.26L373.28 323.35L373.23 323.45L373.19 323.54L373.13 323.63L373.07 323.72L373.01 323.8L372.94 323.88L372.87 323.96L372.79 324.03L372.7 324.1L372.61 324.17L320.98 359.28L320.89 359.34L320.79 359.39L320.7 359.44L320.6 359.48L320.5 359.51L320.4 359.54L320.3 359.56L320.19 359.58L320.16 359.58L320.16 397.98L355.23 397.98L355.55 397.98L355.85 398.01L356.15 398.05L356.44 398.11L356.73 398.18L357.01 398.27L357.28 398.37L357.54 398.48L357.79 398.61L358.03 398.75L358.27 398.9L358.5 399.07L358.71 399.24L358.92 399.43L359.11 399.62L359.3 399.83L359.47 400.04L359.64 400.26L359.79 400.49L359.93 400.73L360.06 400.97L360.18 401.22L360.28 401.47L360.37 401.73L360.45 402L360.51 402.27L360.56 402.54L360.6 402.82L360.62 403.1L360.63 403.38L360.62 403.66L360.6 403.94L360.56 404.22L360.51 404.51L360.43 404.79L360.35 405.07L360.24 405.35L360.12 405.62L359.99 405.9L359.83 406.17L342.61 434.37L325.71 461.94L325.48 462.31L325.23 462.65L324.96 462.98L324.68 463.28L324.39 463.57L324.09 463.84L323.77 464.09L323.45 464.33L323.12 464.54L322.78 464.74L322.43 464.92L322.07 465.07L321.71 465.21L321.34 465.33L320.96 465.44L320.59 465.52L320.21 465.59L319.82 465.63L319.44 465.66L319.05 465.67L318.67 465.66L318.29 465.63L317.9 465.59L317.52 465.52L317.14 465.44L316.77 465.33L316.4 465.21L316.04 465.07L315.68 464.92L315.33 464.74L314.99 464.54L314.66 464.33L314.33 464.09L314.02 463.84L313.72 463.57L313.43 463.28L313.15 462.98L312.88 462.65L312.63 462.31L312.4 461.94L295.5 434.37L278.61 406.71L278.44 406.42L278.3 406.13L278.17 405.83L278.06 405.54L277.97 405.24L277.89 404.94L277.83 404.63L277.79 404.33L277.77 404.03L277.76 403.73L277.77 403.43L277.79 403.14L277.83 402.84L277.88 402.55L277.95 402.27L278.03 401.98L278.13 401.71L278.24 401.43L278.37 401.17L278.5 400.91L278.65 400.66L278.82 400.41L278.99 400.18L279.18 399.95L279.37 399.73L279.58 399.52L279.8 399.33L280.03 399.14L280.27 398.96L280.52 398.8L280.79 398.65L281.06 398.52L281.33 398.39L281.62 398.29L281.92 398.19L282.22 398.12L282.53 398.06L282.85 398.01L283.18 397.98L283.51 397.98L316.73 397.98L316.73 319.58L265.74 284.91L265.65 284.84L265.57 284.77L265.49 284.7L265.42 284.62L265.35 284.54L265.28 284.46L265.22 284.37L265.17 284.28L265.12 284.19L265.08 284.09L265.04 284L265.01 283.9L264.99 283.8L264.97 283.7L264.95 283.59L264.94 283.49L264.94 283.39L264.94 283.36L264.94 283.35L264.94 206.56L264.23 206.36L263.01 205.88L261.86 205.27L260.78 204.54L259.78 203.71L258.86 202.78L258.05 201.77L257.34 200.66L256.74 199.49L256.26 198.25L255.91 196.94L255.69 195.59L255.62 194.19L255.69 192.8L255.91 191.44L256.26 190.14L256.74 188.9L257.34 187.72L258.05 186.62L258.86 185.6L259.78 184.67L260.78 183.84L261.86 183.12L263.01 182.51L264.23 182.02L265.51 181.66L266.84 181.44L268.21 181.37L269.58 181.44L270.91 181.66L272.18 182.02L273.4 182.51L274.56 183.12L275.64 183.84L276.64 184.67L277.55 185.6L278.37 186.62L279.08 187.72L279.67 188.9L280.15 190.14L280.5 191.44L280.72 192.8L280.8 194.19L280.72 195.59L280.5 196.94L280.15 198.25L279.67 199.49L279.08 200.66L278.37 201.77L277.55 202.78L276.64 203.71L275.64 204.54L274.56 205.27L273.4 205.88L272.18 206.36L270.91 206.72L269.58 206.94L268.37 207.01L268.37 282.32L316.73 315.21L316.73 199.85L315.75 199.68L314.47 199.33L313.25 198.84L312.09 198.23L311.01 197.5L310.01 196.67L309.1 195.75L308.29 194.73L307.58 193.63L306.98 192.45L306.5 191.21L306.15 189.9L305.93 188.55L305.86 187.15L305.93 185.76L306.15 184.4L306.5 183.1L306.98 181.86L307.58 180.68L308.29 179.58L309.1 178.56L310.01 177.64L311.01 176.81L312.09 176.08L313.25 175.47L314.47 174.98L315.75 174.63L317.08 174.4L318.45 174.33L319.82 174.4L321.15 174.63Z" id="b4TWuIyOpl"></path><path d="M325.17 461.84L324.93 462.17L324.68 462.48L324.41 462.77L324.14 463.05L323.85 463.31L323.55 463.55L323.24 463.77L322.92 463.97L322.6 464.16L322.26 464.33L321.93 464.48L321.58 464.61L321.23 464.73L320.87 464.82L320.51 464.9L320.15 464.97L319.79 465.01L319.42 465.04L319.06 465.05L318.69 465.04L318.32 465.01L317.96 464.97L317.6 464.9L317.24 464.82L316.88 464.73L316.53 464.61L316.19 464.48L315.85 464.33L315.51 464.16L315.19 463.97L314.87 463.77L314.56 463.55L314.26 463.31L313.98 463.05L313.7 462.77L313.43 462.48L313.18 462.17L312.94 461.84L312.72 461.5L306.43 451.23L331.69 451.23L325.39 461.5L325.17 461.84Z" id="a1duomgoX9"></path></defs><g><g><g><g><use xlink:href="#b4TWuIyOpl" opacity="1" fill="#000000" fill-opacity="1"></use></g><g><use xlink:href="#a1duomgoX9" opacity="1" fill="#000000" fill-opacity="1"></use><g><use xlink:href="#a1duomgoX9" opacity="1" fill-opacity="0" stroke="#ffffff" stroke-width="3" stroke-opacity="1"></use></g></g></g></g></g></svg>