<?xml version="1.0" encoding="UTF-8" standalone="no"?>
<!DOCTYPE svg PUBLIC "-//W3C//DTD SVG 1.1//EN" "http://www.w3.org/Graphics/SVG/1.1/DTD/svg11.dtd">
<svg version="1.1" xmlns="http://www.w3.org/2000/svg" xmlns:xlink="http://www.w3.org/1999/xlink" preserveAspectRatio="xMidYMid meet" viewBox="0 0 303 142" width="303" height="142"><defs><path d="M280.06 6.91L281.36 7.26L282.6 7.74L283.78 8.34L284.88 9.05L285.9 9.86L286.83 10.78L287.66 11.78L288.38 12.86L288.99 14.01L289.48 15.23L289.84 16.51L290.06 17.84L290.13 19.21L290.06 20.58L289.84 21.91L289.48 23.18L288.99 24.4L288.38 25.56L287.66 26.64L286.83 27.64L285.9 28.55L284.88 29.37L283.78 30.08L282.6 30.67L281.36 31.15L280.06 31.5L278.7 31.72L277.31 31.8L275.91 31.72L274.56 31.5L273.25 31.15L272.01 30.67L270.84 30.08L269.73 29.37L268.72 28.55L267.79 27.64L266.96 26.64L266.23 25.56L265.62 24.4L265.14 23.18L264.78 21.91L264.56 20.58L264.49 19.37L189.18 19.37L156.29 67.73L271.65 67.73L271.82 66.75L272.17 65.47L272.66 64.25L273.27 63.09L274 62.01L274.83 61.01L275.75 60.1L276.77 59.29L277.87 58.58L279.05 57.98L280.29 57.5L281.6 57.15L282.95 56.93L284.35 56.86L285.74 56.93L287.1 57.15L288.4 57.5L289.64 57.98L290.82 58.58L291.92 59.29L292.94 60.1L293.86 61.01L294.69 62.01L295.42 63.09L296.03 64.25L296.52 65.47L296.87 66.75L297.1 68.08L297.17 69.45L297.1 70.82L296.87 72.15L296.52 73.42L296.03 74.64L295.42 75.8L294.69 76.88L293.86 77.88L292.94 78.79L291.92 79.6L290.82 80.31L289.64 80.91L288.4 81.39L287.1 81.74L285.74 81.96L284.35 82.03L282.95 81.96L281.6 81.74L280.29 81.39L279.05 80.91L277.87 80.31L276.77 79.6L275.75 78.79L274.83 77.88L274 76.88L273.27 75.8L272.66 74.64L272.17 73.42L271.82 72.15L271.65 71.16L153 71.16L152.98 71.16L152.96 71.16L116.03 71.16L149.92 120.99L225.57 120.99L225.72 120.09L226.08 118.82L226.57 117.6L227.18 116.44L227.9 115.36L228.73 114.36L229.66 113.45L230.68 112.63L231.78 111.92L232.96 111.33L234.2 110.85L235.5 110.5L236.86 110.28L238.25 110.2L239.65 110.28L241 110.5L242.3 110.85L243.55 111.33L244.72 111.92L245.82 112.63L246.84 113.45L247.77 114.36L248.6 115.36L249.32 116.44L249.93 117.6L250.42 118.82L250.78 120.09L251 121.42L251.08 122.79L251 124.16L250.78 125.49L250.42 126.77L249.93 127.99L249.32 129.14L248.6 130.22L247.77 131.22L246.84 132.14L245.82 132.95L244.72 133.66L243.55 134.26L242.3 134.74L241 135.09L239.65 135.31L238.25 135.38L236.86 135.31L235.5 135.09L234.2 134.74L232.96 134.26L231.78 133.66L230.68 132.95L229.66 132.14L228.73 131.22L227.9 130.22L227.18 129.14L226.57 127.99L226.08 126.77L225.72 125.49L225.54 124.42L148.89 124.42L148.88 124.42L148.85 124.42L148.75 124.41L148.65 124.4L148.54 124.39L148.44 124.37L148.34 124.34L148.24 124.31L148.15 124.28L148.05 124.23L147.96 124.19L147.87 124.13L147.78 124.07L147.7 124.01L147.62 123.94L147.54 123.87L147.47 123.79L147.4 123.7L147.33 123.61L112.22 71.98L112.16 71.89L112.11 71.79L112.06 71.7L112.02 71.6L111.99 71.5L111.96 71.4L111.94 71.3L111.92 71.19L111.92 71.16L73.52 71.16L73.52 106.23L73.52 106.55L73.49 106.85L73.45 107.15L73.39 107.44L73.32 107.73L73.23 108.01L73.13 108.28L73.02 108.54L72.89 108.79L72.75 109.03L72.6 109.27L72.43 109.5L72.26 109.71L72.07 109.92L71.88 110.11L71.67 110.3L71.46 110.47L71.24 110.64L71.01 110.79L70.77 110.93L70.53 111.06L70.28 111.18L70.03 111.28L69.77 111.37L69.5 111.45L69.23 111.51L68.96 111.56L68.68 111.6L68.4 111.62L68.12 111.63L67.84 111.62L67.56 111.6L67.28 111.56L66.99 111.51L66.71 111.43L66.43 111.35L66.15 111.24L65.88 111.12L65.6 110.99L65.33 110.83L37.13 93.61L9.56 76.71L9.19 76.48L8.85 76.23L8.52 75.96L8.22 75.68L7.93 75.39L7.66 75.09L7.41 74.77L7.17 74.45L6.96 74.12L6.76 73.78L6.58 73.43L6.43 73.07L6.29 72.71L6.17 72.34L6.06 71.96L5.98 71.59L5.91 71.21L5.87 70.82L5.84 70.44L5.83 70.05L5.84 69.67L5.87 69.29L5.91 68.9L5.98 68.52L6.06 68.14L6.17 67.77L6.29 67.4L6.43 67.04L6.58 66.68L6.76 66.33L6.96 65.99L7.17 65.66L7.41 65.33L7.66 65.02L7.93 64.72L8.22 64.43L8.52 64.15L8.85 63.88L9.19 63.63L9.56 63.4L37.13 46.5L64.79 29.61L65.08 29.44L65.37 29.3L65.67 29.17L65.96 29.06L66.26 28.97L66.56 28.89L66.87 28.83L67.17 28.79L67.47 28.77L67.77 28.76L68.07 28.77L68.36 28.79L68.66 28.83L68.95 28.88L69.23 28.95L69.52 29.03L69.79 29.13L70.07 29.24L70.33 29.37L70.59 29.5L70.84 29.65L71.09 29.82L71.32 29.99L71.55 30.18L71.77 30.37L71.98 30.58L72.17 30.8L72.36 31.03L72.54 31.27L72.7 31.52L72.85 31.79L72.98 32.06L73.11 32.33L73.21 32.62L73.31 32.92L73.38 33.22L73.44 33.53L73.49 33.85L73.52 34.18L73.52 34.51L73.52 67.73L151.92 67.73L186.59 16.74L186.66 16.65L186.73 16.57L186.8 16.49L186.88 16.42L186.96 16.35L187.04 16.28L187.13 16.22L187.22 16.17L187.31 16.12L187.41 16.08L187.5 16.04L187.6 16.01L187.7 15.99L187.8 15.97L187.91 15.95L188.01 15.94L188.11 15.94L188.14 15.94L188.15 15.94L264.94 15.94L265.14 15.23L265.62 14.01L266.23 12.86L266.96 11.78L267.79 10.78L268.72 9.86L269.73 9.05L270.84 8.34L272.01 7.74L273.25 7.26L274.56 6.91L275.91 6.69L277.31 6.62L278.7 6.69L280.06 6.91Z" id="a2htfGMTin"></path><path d="M10 76.39L9.66 76.17L9.33 75.93L9.02 75.68L8.73 75.41L8.45 75.14L8.19 74.85L7.95 74.55L7.73 74.24L7.53 73.92L7.34 73.6L7.17 73.26L7.02 72.93L6.89 72.58L6.77 72.23L6.68 71.87L6.6 71.51L6.53 71.15L6.49 70.79L6.46 70.42L6.45 70.06L6.46 69.69L6.49 69.32L6.53 68.96L6.6 68.6L6.68 68.24L6.77 67.88L6.89 67.53L7.02 67.19L7.17 66.85L7.34 66.51L7.53 66.19L7.73 65.87L7.95 65.56L8.19 65.26L8.45 64.98L8.73 64.7L9.02 64.43L9.33 64.18L9.66 63.94L10 63.72L20.27 57.43L20.27 82.69L10 76.39Z" id="a2KsqqrIi5"></path></defs><g><g><g><g><use xlink:href="#a2htfGMTin" opacity="1" fill="#000000" fill-opacity="1"></use></g><g><use xlink:href="#a2KsqqrIi5" opacity="1" fill="#000000" fill-opacity="1"></use><g><use xlink:href="#a2KsqqrIi5" opacity="1" fill-opacity="0" stroke="#ffffff" stroke-width="3" stroke-opacity="1"></use></g></g></g></g></g></svg>