<?xml version="1.0" standalone="no"?>
<!DOCTYPE svg PUBLIC "-//W3C//DTD SVG 20010904//EN"
 "http://www.w3.org/TR/2001/REC-SVG-20010904/DTD/svg10.dtd">
<svg version="1.0" xmlns="http://www.w3.org/2000/svg"
 width="844.000000pt" height="844.000000pt" viewBox="0 0 844.000000 844.000000"
 preserveAspectRatio="xMidYMid meet">
<metadata>
Created by potrace 1.11, written by Peter Selinger 2001-2013
</metadata>
<g transform="translate(0.000000,844.000000) scale(0.100000,-0.100000)"
fill="#000000" stroke="none">
<path d="M1038 6798 c-27 -22 -30 -62 -7 -86 l20 -22 1299 0 1299 0 -46 -87
c-25 -49 -55 -106 -68 -128 -12 -22 -44 -83 -71 -135 -27 -52 -51 -97 -54
-100 -3 -3 -18 -30 -33 -60 -28 -54 -156 -298 -208 -395 -15 -27 -42 -79 -61
-115 -18 -36 -36 -66 -40 -68 -5 -2 -8 -12 -8 -22 0 -10 -3 -20 -8 -22 -6 -3
-25 -36 -107 -195 -16 -32 -54 -103 -84 -158 -78 -145 -124 -231 -162 -305
-18 -36 -35 -67 -38 -70 -4 -3 -21 -34 -38 -70 -18 -36 -56 -108 -84 -160 -49
-92 -110 -207 -199 -375 -54 -103 -123 -231 -170 -320 -21 -38 -55 -104 -76
-145 -22 -41 -41 -77 -44 -80 -3 -3 -11 -16 -17 -30 -13 -26 -112 -215 -205
-390 -31 -58 -69 -130 -85 -160 -15 -30 -31 -56 -36 -58 -4 -2 -7 -12 -7 -23
0 -10 -4 -19 -10 -19 -5 0 -10 -4 -10 -9 0 -5 -32 -69 -71 -143 -39 -73 -94
-176 -121 -228 -69 -130 -125 -234 -163 -305 -18 -33 -58 -109 -91 -170 -56
-106 -79 -150 -172 -325 l-42 -81 26 -45 26 -44 1349 0 c1336 0 1349 0 1369
20 26 26 26 62 0 85 -18 16 -45 18 -325 17 l-305 0 -19 41 c-10 23 -67 164
-126 312 -59 149 -113 284 -120 300 -25 58 -105 259 -105 265 0 4 6 7 13 7 10
0 234 139 482 298 28 18 145 92 260 166 l210 134 671 1 671 0 74 48 c220 141
365 236 374 243 6 5 35 24 65 43 30 19 57 38 58 42 2 5 8 8 13 8 6 0 38 19 72
42 34 24 66 45 72 48 5 3 55 35 110 71 185 122 310 204 320 209 6 3 29 18 53
33 l43 28 47 -40 c148 -124 365 -77 445 96 87 189 -52 406 -260 405 -107 0
-204 -60 -254 -155 -25 -48 -37 -141 -25 -189 10 -38 -3 -68 -29 -68 -8 0 -15
-4 -17 -8 -1 -4 -34 -27 -73 -51 -38 -24 -71 -48 -73 -53 -2 -4 -10 -8 -17 -8
-8 0 -20 -6 -27 -12 -21 -21 -187 -128 -197 -128 -5 0 -11 -3 -13 -8 -3 -7
-81 -58 -368 -244 -58 -37 -110 -72 -117 -78 -7 -5 -24 -15 -38 -22 -14 -6
-25 -15 -25 -20 0 -4 -4 -8 -9 -8 -9 0 -135 -79 -158 -99 -7 -6 -24 -16 -38
-23 -14 -6 -25 -14 -25 -17 0 -7 -1168 -6 -1176 1 -3 3 12 16 33 28 21 12 163
102 315 199 153 97 290 183 305 191 16 8 32 21 36 28 4 6 12 12 17 12 5 0 57
30 115 68 58 37 113 72 122 77 9 6 45 28 79 50 35 22 96 61 136 86 40 25 123
77 183 116 61 38 198 125 305 193 107 68 269 171 360 228 91 58 208 132 260
165 52 33 118 74 145 92 96 62 140 90 158 100 10 5 131 82 270 170 247 157
285 181 456 290 l84 54 31 -23 c46 -35 86 -53 136 -62 25 -4 47 -7 50 -7 3 1
19 3 36 6 40 6 114 39 143 63 29 24 80 97 89 127 3 12 6 58 6 103 0 68 -4 87
-26 125 -57 97 -145 151 -246 151 -70 -1 -89 -5 -139 -30 -124 -64 -185 -216
-140 -347 16 -46 41 -25 -213 -184 -91 -57 -187 -118 -215 -136 -27 -18 -79
-50 -115 -73 -36 -23 -70 -45 -76 -49 -5 -4 -19 -13 -30 -19 -10 -6 -30 -17
-44 -25 -14 -8 -27 -17 -30 -20 -7 -8 -150 -99 -155 -99 -3 0 -27 -15 -53 -33
-44 -30 -230 -149 -270 -172 -9 -6 -50 -31 -90 -58 -40 -26 -75 -47 -77 -47
-2 0 -30 -18 -61 -40 -32 -22 -63 -40 -71 -40 -7 0 -13 -4 -13 -8 0 -4 -15
-16 -32 -26 -18 -11 -55 -34 -83 -51 -166 -106 -1044 -662 -1073 -680 -11 -6
-12 -3 -4 11 5 11 21 44 35 74 13 30 40 87 58 125 18 39 33 72 34 75 0 3 18
41 39 85 21 44 54 114 73 155 20 41 53 113 75 160 38 80 74 159 101 223 7 15
15 27 19 27 5 0 8 7 8 15 0 8 12 38 26 67 24 50 35 59 177 148 83 52 155 97
161 99 6 2 13 7 16 10 3 3 14 11 25 18 23 14 298 185 649 404 132 82 242 149
245 149 4 0 18 -11 32 -24 43 -39 131 -67 201 -61 201 15 323 228 234 409 -24
48 -99 129 -124 132 -4 0 -20 6 -37 13 -62 26 -188 17 -226 -15 -8 -8 -20 -14
-25 -14 -21 0 -94 -94 -113 -144 -19 -51 -22 -161 -4 -189 13 -22 13 -45 -1
-50 -12 -5 -229 -139 -524 -324 -37 -24 -101 -63 -142 -88 -41 -26 -131 -82
-200 -126 -69 -44 -134 -84 -145 -89 -11 -6 -67 -40 -125 -77 l-105 -68 -50
-100 c-27 -55 -61 -125 -74 -155 -14 -30 -52 -113 -86 -185 -34 -71 -70 -148
-80 -170 -10 -22 -42 -91 -72 -154 -29 -62 -53 -114 -53 -116 0 -3 -96 -208
-143 -305 -14 -30 -39 -60 -48 -60 -8 0 -56 -30 -509 -317 -132 -84 -244 -153
-250 -153 -5 0 -10 -4 -10 -8 0 -4 -15 -16 -32 -26 -18 -11 -76 -46 -128 -79
-52 -33 -122 -77 -155 -98 -33 -21 -65 -43 -72 -48 -7 -6 -14 -11 -17 -11 -4
0 -194 -120 -350 -221 -33 -21 -63 -36 -67 -33 -5 3 -13 19 -18 37 -5 18 -27
75 -49 127 -22 52 -99 244 -172 425 -72 182 -140 349 -151 372 -10 24 -19 49
-19 56 0 8 -3 17 -7 21 -4 4 -15 26 -23 49 l-16 42 75 145 c41 80 78 147 83
148 4 2 8 11 8 21 0 9 4 21 9 27 9 9 83 146 223 414 19 36 56 106 83 155 27
50 64 122 84 160 20 39 38 72 41 75 3 3 15 25 27 50 12 25 44 86 71 135 26 50
79 149 116 220 38 72 81 153 96 180 15 28 49 91 75 140 86 163 148 279 175
330 15 28 56 104 90 170 35 66 68 123 73 126 5 3 7 8 5 10 -3 4 53 120 63 129
3 3 27 47 53 99 l48 93 -24 44 -23 44 -1351 0 c-1065 0 -1353 -3 -1366 -12z
m1266 -3123 c26 -66 51 -129 56 -140 10 -22 39 -93 242 -599 77 -193 149 -371
160 -396 11 -24 21 -49 23 -55 1 -5 6 -19 10 -30 5 -11 21 -51 37 -90 16 -38
31 -74 32 -80 2 -5 8 -22 14 -37 6 -15 34 -84 62 -155 28 -70 60 -150 72 -178
11 -27 25 -61 30 -75 6 -14 14 -33 19 -43 7 -12 5 -19 -3 -22 -7 -2 -197 -3
-423 -2 l-410 2 -75 52 c-226 158 -373 382 -424 643 -13 65 -13 215 -1 279 6
30 313 657 390 796 15 28 47 88 72 135 25 47 50 93 55 103 5 10 11 17 12 15 2
-1 24 -57 50 -123z"/>
</g>
</svg>
