<svg width="25" height="17" viewBox="0 0 25 17" fill="none" xmlns="http://www.w3.org/2000/svg">
<path d="M10.0694 7.6837C11.4497 7.02398 12.1701 6.02572 12.1701 4.4719C12.1701 1.40766 9.88715 0.661133 7.2526 0.661133H0V16.0431H7.4566C10.2517 16.0431 12.8776 14.7019 12.8776 11.5769C12.8776 9.64551 11.9618 8.21756 10.0694 7.6837ZM3.38108 3.287H6.55382C7.77344 3.287 8.87153 3.62988 8.87153 5.04481C8.87153 6.35124 8.01649 6.87641 6.8099 6.87641H3.38108V3.287ZM6.99653 13.4302H3.38108V9.19412H7.06597C8.55469 9.19412 9.49653 9.81478 9.49653 11.3903C9.49653 12.9441 8.3724 13.4302 6.99653 13.4302ZM22.5564 2.98318H16.3194V1.46842H22.5564V2.98318ZM25 10.6351C25 7.34082 23.0729 4.59342 19.579 4.59342C16.1849 4.59342 13.8802 7.14551 13.8802 10.4875C13.8802 13.9554 16.0634 16.3339 19.579 16.3339C22.2396 16.3339 23.9627 15.136 24.7917 12.5882H22.092C21.8012 13.5387 20.6033 14.0422 19.6745 14.0422C17.8819 14.0422 16.9401 12.9919 16.9401 11.208H24.974C24.987 11.0257 25 10.8304 25 10.6351ZM16.9444 9.28092C17.0443 7.81825 18.0165 6.90245 19.4835 6.90245C21.02 6.90245 21.7925 7.80523 21.9227 9.28092H16.9444Z" fill="black"/>
</svg>
