<svg width="23" height="23" viewBox="0 0 23 23" fill="none" xmlns="http://www.w3.org/2000/svg">
<path d="M11.5046 5.88452C8.39917 5.88452 5.89429 8.3894 5.89429 11.4949C5.89429 14.6003 8.39917 17.1052 11.5046 17.1052C14.6101 17.1052 17.115 14.6003 17.115 11.4949C17.115 8.3894 14.6101 5.88452 11.5046 5.88452ZM11.5046 15.1423C9.4978 15.1423 7.85718 13.5066 7.85718 11.4949C7.85718 9.48315 9.49292 7.84741 11.5046 7.84741C13.5164 7.84741 15.1521 9.48315 15.1521 11.4949C15.1521 13.5066 13.5115 15.1423 11.5046 15.1423ZM18.6531 5.65503C18.6531 6.38257 18.0671 6.96362 17.3445 6.96362C16.6169 6.96362 16.0359 6.37769 16.0359 5.65503C16.0359 4.93237 16.6218 4.34644 17.3445 4.34644C18.0671 4.34644 18.6531 4.93237 18.6531 5.65503ZM22.3689 6.98315C22.2859 5.23022 21.8855 3.67749 20.6013 2.39819C19.322 1.1189 17.7693 0.718506 16.0164 0.630615C14.2097 0.528076 8.79468 0.528076 6.98804 0.630615C5.23999 0.713623 3.68726 1.11401 2.40308 2.39331C1.1189 3.67261 0.723389 5.22534 0.635498 6.97827C0.532959 8.78491 0.532959 14.2 0.635498 16.0066C0.718506 17.7595 1.1189 19.3123 2.40308 20.5916C3.68726 21.8708 5.23511 22.2712 6.98804 22.3591C8.79468 22.4617 14.2097 22.4617 16.0164 22.3591C17.7693 22.2761 19.322 21.8757 20.6013 20.5916C21.8806 19.3123 22.281 17.7595 22.3689 16.0066C22.4714 14.2 22.4714 8.78979 22.3689 6.98315ZM20.0349 17.9451C19.6541 18.9021 18.9167 19.6394 17.9548 20.0251C16.5144 20.5964 13.0964 20.4646 11.5046 20.4646C9.91284 20.4646 6.48999 20.5916 5.05444 20.0251C4.09741 19.6443 3.36011 18.907 2.97437 17.9451C2.40308 16.5046 2.53491 13.0867 2.53491 11.4949C2.53491 9.90308 2.40796 6.48022 2.97437 5.04468C3.35522 4.08765 4.09253 3.35034 5.05444 2.9646C6.49487 2.39331 9.91284 2.52515 11.5046 2.52515C13.0964 2.52515 16.5193 2.39819 17.9548 2.9646C18.9119 3.34546 19.6492 4.08276 20.0349 5.04468C20.6062 6.48511 20.4744 9.90308 20.4744 11.4949C20.4744 13.0867 20.6062 16.5095 20.0349 17.9451Z" fill="black"/>
</svg>
