<svg width="23" height="22" viewBox="0 0 23 22" fill="none" xmlns="http://www.w3.org/2000/svg">
<path d="M5.45898 21.8748H0.923828V7.27026H5.45898V21.8748ZM3.18896 5.27808C1.73877 5.27808 0.5625 4.0769 0.5625 2.62671C0.5625 1.93013 0.839216 1.26208 1.33177 0.769518C1.82433 0.27696 2.49238 0.000244141 3.18896 0.000244141C3.88555 0.000244141 4.5536 0.27696 5.04616 0.769518C5.53871 1.26208 5.81543 1.93013 5.81543 2.62671C5.81543 4.0769 4.63867 5.27808 3.18896 5.27808ZM22.4326 21.8748H17.9072V14.7654C17.9072 13.071 17.873 10.8982 15.5493 10.8982C13.1914 10.8982 12.8301 12.739 12.8301 14.6433V21.8748H8.29981V7.27026H12.6494V9.26245H12.7129C13.3184 8.11499 14.7974 6.90405 17.0039 6.90405C21.5938 6.90405 22.4375 9.92651 22.4375 13.8523V21.8748H22.4326Z" fill="black"/>
</svg>
