<?xml version="1.0" encoding="UTF-8" standalone="no"?>
<!DOCTYPE svg PUBLIC "-//W3C//DTD SVG 1.1//EN" "http://www.w3.org/Graphics/SVG/1.1/DTD/svg11.dtd">
<svg version="1.1" xmlns="http://www.w3.org/2000/svg" xmlns:xlink="http://www.w3.org/1999/xlink" preserveAspectRatio="xMidYMid meet" viewBox="0 0 640 640" width="640" height="640"><defs><path d="M310.1 396.28L310.19 396.56L310.28 396.84L310.37 397.12L310.45 397.41L310.52 397.69L310.59 397.98L310.65 398.26L310.71 398.55L310.77 398.84L310.82 399.12L310.86 399.41L310.9 399.7L310.94 399.99L310.97 400.28L310.99 400.57L311.01 400.86L311.03 401.16L311.04 401.45L311.05 401.74L311.05 402.03L311.04 402.32L311.03 402.61L311.02 402.9L311 403.19L310.98 403.48L310.95 403.77L310.91 404.06L310.88 404.35L310.83 404.64L310.79 404.93L310.73 405.22L310.67 405.5L310.61 405.79L310.54 406.08L310.47 406.36L310.39 406.64L310.31 406.93L310.22 407.21L310.13 407.49L310.03 407.77L280.18 491.26L280.06 491.58L279.93 491.89L279.79 492.19L279.64 492.5L279.49 492.79L279.33 493.08L279.15 493.36L278.97 493.64L278.79 493.91L278.59 494.17L278.39 494.43L278.18 494.68L277.96 494.92L277.73 495.16L277.5 495.39L277.26 495.61L277.02 495.83L276.77 496.03L276.51 496.23L276.25 496.42L275.98 496.61L275.71 496.78L275.43 496.95L275.14 497.1L274.85 497.25L274.56 497.4L274.26 497.53L273.96 497.65L273.65 497.76L273.34 497.87L273.03 497.97L272.71 498.05L272.39 498.13L272.07 498.19L271.74 498.25L271.41 498.3L271.08 498.33L270.74 498.36L270.4 498.38L270.06 498.38L238.47 498.38L238.11 498.38L237.75 498.36L237.4 498.33L237.05 498.29L236.7 498.24L236.35 498.18L236.01 498.11L235.67 498.02L235.33 497.93L235 497.83L234.68 497.71L234.35 497.59L234.03 497.46L233.72 497.32L233.41 497.16L233.11 497L232.81 496.83L232.52 496.65L232.23 496.46L231.95 496.27L231.67 496.06L231.4 495.85L231.14 495.62L230.89 495.39L230.64 495.15L230.4 494.91L230.17 494.65L229.94 494.39L229.72 494.12L229.51 493.85L229.31 493.56L229.12 493.27L228.94 492.98L228.76 492.67L228.6 492.36L228.44 492.05L228.29 491.72L228.15 491.4L228.03 491.06L227.91 490.72L108.18 124.26L108.04 123.8L107.92 123.33L107.83 122.87L107.76 122.41L107.72 121.95L107.7 121.49L107.7 121.03L107.72 120.58L107.76 120.13L107.83 119.69L107.91 119.25L108.02 118.82L108.14 118.4L108.17 118.34L214.19 118.34L214.3 118.64L310.1 396.28Z" id="d1nZJZdW7S"></path><path d="M125.83 149.1L115.41 141.11L112.35 126.29L137.86 149.63L123.9 164.54L127.58 173.19L142.28 157.23L150.79 157.06L166.21 140.07L166.02 130.83L173.86 122.46L212.66 121.67" id="e1qRLBoC1D"></path><path d="M143.41 139.25L128.36 125.45L143.11 124.37" id="a19uze5boT"></path><path d="M140.4 151.37L147.84 147.88L158.87 136.11L157.9 125.61" id="fozCdAi2r"></path><path d="M180.5 128.74L174.88 135.27L175.04 143.22L156.41 162.59" id="c4MRaZXBMw"></path><path d="M212.02 163.76L204.01 163.93L187.55 179.66L150.4 181.19L136.35 198.15L131.77 182.34L138.36 173.99L183.66 173.07L196.91 159.71L196.49 139.19L192.64 134.65L187.64 134.75L183.98 139.45L184.18 149.19L170.44 163.33" id="a2RHPh0Q4V"></path><path d="M218.05 140.29L201.14 121.91" id="a1fJX8igK"></path><path d="M238.2 207.62L236.19 195.08L218.82 214.94L168.01 215.98L150.42 237.12L146.72 227.7L163.59 207.86L202.87 206.29L211.69 196.61L219.03 188.25L228.04 188.07L231.93 182.6L229.47 172.39L222.86 179.71L213.85 179.89L197.19 197.68L159.13 197.69L143.7 214.68L139.57 208.35L155.23 190.58L193 188.78L208.67 171.53L217.93 171.34L225.03 163.24L203.07 142.39L202.9 134.44" id="c6PD12CemG"></path><path d="M180.7 224.19L191.29 215.5" id="b1LI4X1sxm"></path><path d="M215.62 205.25L202.85 205.52" id="b23OBHxb0"></path><path d="M222.43 195.62L211.67 195.84" id="b4pH8zK1eD"></path><path d="M183.41 160.75L190.28 165.87" id="aETSxBJ4"></path><path d="M161.45 262.3L177.61 244.26L189.62 244.02L203.42 232.96L246.42 230.03L242.23 221.13L198.97 223.81L186.96 236.37L173.19 236.66L156.3 255.22L151.7 244.79L164.08 231.71" id="altjFttLl"></path><path d="M254.41 269.38L254.32 265.02L228.54 265.54L209.71 287.48L201.83 287.64L201.94 293.03L184.54 293.38L184.36 284.41L201.12 284.06L225.1 256.63L254.13 256.04L252.29 247.61L212.03 249.97L203.98 260.4L197.97 260.52L188.01 263.29L167.92 284.74L164.8 279.42L186.7 254.08L196.08 253.89L207.3 239.29L244.34 238.54" id="a2AdUua1RR"></path><path d="M262.78 299.23L247.84 299.53L235.75 312.35L236.76 324.9L228.43 333.54L215.49 333.8L203.17 322.67L198.41 322.76L189.94 314.83L189.86 310.98L172.28 293.63L172.19 289.27L187 269.22L202.07 268.91L212.2 258.44" id="eNxzHAdhI"></path><path d="M196.86 283.64L196.79 280.05L187.23 280.24L188.1 283.82" id="asKYcTF46"></path><path d="M218.65 308.67L201.94 293.03L207.65 297.02L223.42 296.69L239.06 277.9L261.58 277.44L265.6 290.44L242.83 290.91L227.16 308.5L227.44 322.17L223.27 326.2L219.64 322.33L210.59 322.51L206.32 317.83L206.22 312.95L198.32 305.93L193.14 306.04L188.47 302.03L188.28 292.75" id="d5AQuvcM0"></path><path d="M218.93 322.34L218.65 308.67" id="aWJP8QOk"></path><path d="M254.68 380.73L266.2 368.69L266.54 385.36L251.77 397.46L239.27 398.75L227.55 413.1L229.69 456.42L219.33 427.63L218.18 408.16L266.91 354.56L265.49 333.81L275.3 323.6L270.71 307.6L252.19 307.98L243.62 317.58L243.9 330.91L231.88 343.22L214.67 342.8L202.73 331.76L194.34 331.93L181.55 318.85L181.4 311.15L174.59 305.13" id="b6tuB4nykX"></path><path d="M183.54 330.35L193.85 340.92L203.78 340.71L217.02 351.22L233.79 350.88L203.19 385.12L206.88 394.28L258.04 337.04L258.32 350.38L212.2 401.1" id="crao62ptl"></path><path d="M257.86 328.06L256.7 307.89" id="b7zTw2Hqc"></path><path d="M264.94 319.45L264.7 307.73" id="baBhBsa7d"></path><path d="M217.4 369.69L195.69 348.83L190.68 348.94L197.88 370.09L205.38 369.93" id="a5N5c6rnoh"></path><path d="M236.08 466.64L242.36 472.82L260.3 476.95L268.87 473.48L274.1 457.01L280.81 441.72L293.41 442.07L285.95 456.77L276.86 463.41L271.88 477.47L240.7 484.86" id="a3xhcuOaiy"></path><path d="M275.23 369.07C273.9 367.08 273.07 365.84 272.73 365.34C272.15 364.47 272.19 363.33 272.84 362.51C275.13 359.58 280.92 352.19 283.22 349.27C283.66 348.71 284.56 348.9 284.73 349.6C284.97 350.6 285.58 353.11 286.55 357.13L289.11 367.43L294.82 367.76L299.15 379.08L290.2 385.11L280.12 393.27L273.89 396.85L268.01 395.62L255.05 406.09L248.46 406.22L236.05 422.08L236.4 439.33L241.04 444.34L241.48 465.78L243.47 469.79L250.64 469.65L253.07 466.75L252.72 449.8L246.94 446.62C246.92 445.41 246.9 444.65 246.9 444.35C246.88 443.51 247.25 442.7 247.9 442.16C251.16 439.44 259.51 432.48 262.68 429.84C263.57 429.1 263.8 427.82 263.22 426.82C262.51 425.58 260.75 422.51 257.92 417.58L263.86 410.86L288.49 409.01L302.04 391.47L305.43 399.81L296.99 423.84L294.55 433.19L266.75 434.36L256.73 445.22L256.94 469.97L265.07 470.4L267.83 465.7L265.83 460.93L267.42 445.45" id="b9dPuxTxW"></path><path d="M116.62 125.3C116.66 127.38 115.05 129.11 113.02 129.15C110.99 129.19 109.3 127.53 109.26 125.45C109.22 123.37 110.83 121.65 112.86 121.61C114.89 121.57 116.58 123.22 116.62 125.3Z" id="a1Lm1Yl5Gj"></path><path d="M146.66 124.69C146.7 126.77 145.09 128.49 143.06 128.53C141.03 128.58 139.35 126.92 139.3 124.84C139.26 122.76 140.88 121.04 142.91 120.99C144.94 120.95 146.62 122.61 146.66 124.69Z" id="e1Nd9F1kmA"></path><path d="M173.2 164.02C173.24 166.1 171.63 167.82 169.6 167.86C167.57 167.9 165.88 166.25 165.84 164.17C165.8 162.09 167.41 160.36 169.44 160.32C171.47 160.28 173.16 161.94 173.2 164.02Z" id="blOQ5FJrP"></path><path d="M129.19 148.75C129.23 150.83 127.62 152.56 125.59 152.6C123.56 152.64 121.88 150.98 121.83 148.9C121.79 146.82 123.4 145.1 125.44 145.06C127.47 145.02 129.15 146.67 129.19 148.75Z" id="c3bhIhtBBW"></path><path d="M146.93 137.97C146.98 140.05 145.36 141.78 143.33 141.82C141.3 141.86 139.62 140.2 139.58 138.12C139.53 136.04 141.15 134.32 143.18 134.28C145.21 134.24 146.89 135.89 146.93 137.97Z" id="a5tPweRKi"></path><path d="M184.07 128.8C184.12 130.88 182.5 132.61 180.47 132.65C178.44 132.69 176.76 131.03 176.72 128.95C176.67 126.87 178.29 125.15 180.32 125.11C182.35 125.07 184.03 126.72 184.07 128.8Z" id="as2H4RT3J"></path><path d="M161.29 124.39C161.33 126.47 159.72 128.19 157.69 128.24C155.66 128.28 153.97 126.62 153.93 124.54C153.89 122.46 155.5 120.74 157.53 120.7C159.56 120.65 161.25 122.31 161.29 124.39Z" id="boVcsaiVR"></path><path d="M136.36 182.16C136.4 184.24 134.79 185.96 132.76 186C130.73 186.05 129.04 184.39 129 182.31C128.96 180.23 130.57 178.51 132.6 178.46C134.63 178.42 136.32 180.08 136.36 182.16Z" id="c59ErI8OWH"></path><path d="M143.09 151.34C143.13 153.42 141.52 155.15 139.49 155.19C137.46 155.23 135.77 153.57 135.73 151.49C135.69 149.41 137.3 147.69 139.33 147.65C141.36 147.61 143.05 149.26 143.09 151.34Z" id="atueHHDr2"></path><path d="M196.17 189.02C196.21 191.1 194.6 192.82 192.57 192.86C190.54 192.9 188.86 191.25 188.81 189.17C188.77 187.09 190.39 185.36 192.42 185.32C194.45 185.28 196.13 186.94 196.17 189.02Z" id="a1niL07k1"></path><path d="M160.09 162.91C160.13 164.99 158.52 166.71 156.49 166.75C154.46 166.79 152.78 165.14 152.73 163.06C152.69 160.98 154.3 159.25 156.33 159.21C158.37 159.17 160.05 160.83 160.09 162.91Z" id="l33oJ0ERka"></path><path d="M187.13 161.31C187.18 163.39 185.56 165.11 183.53 165.15C181.5 165.19 179.82 163.54 179.78 161.46C179.73 159.38 181.35 157.65 183.38 157.61C185.41 157.57 187.09 159.23 187.13 161.31Z" id="b55E7cInpK"></path><path d="M206.89 134.83C206.94 136.91 205.32 138.64 203.29 138.68C201.26 138.72 199.58 137.06 199.54 134.98C199.49 132.9 201.11 131.18 203.14 131.14C205.17 131.1 206.85 132.75 206.89 134.83Z" id="ezqAStcwT"></path><path d="M162.8 198.2C162.84 200.28 161.23 202 159.2 202.05C157.17 202.09 155.48 200.43 155.44 198.35C155.4 196.27 157.01 194.55 159.04 194.51C161.07 194.46 162.76 196.12 162.8 198.2Z" id="f62bGosjG"></path><path d="M147.63 214.76C147.67 216.84 146.06 218.57 144.03 218.61C142 218.65 140.31 216.99 140.27 214.91C140.23 212.83 141.84 211.11 143.87 211.07C145.9 211.03 147.58 212.68 147.63 214.76Z" id="a19FUqhEfO"></path><path d="M154.3 181.07C154.34 183.15 152.73 184.88 150.7 184.92C148.67 184.96 146.98 183.3 146.94 181.22C146.9 179.14 148.51 177.42 150.54 177.38C152.57 177.34 154.26 178.99 154.3 181.07Z" id="bCDOG8047"></path><path d="M222.07 140.21C222.12 142.29 220.5 144.01 218.47 144.05C216.44 144.1 214.76 142.44 214.72 140.36C214.67 138.28 216.29 136.56 218.32 136.51C220.35 136.47 222.03 138.13 222.07 140.21Z" id="b1vzDwXYkh"></path><path d="M217.95 122.72C217.99 124.8 216.38 126.53 214.35 126.57C212.32 126.61 210.63 124.95 210.59 122.87C210.55 120.79 212.16 119.07 214.19 119.03C216.22 118.99 217.91 120.64 217.95 122.72Z" id="beqmWUyOf"></path><path d="M215.1 163.16C215.14 165.24 213.52 166.96 211.49 167C209.46 167.05 207.78 165.39 207.74 163.31C207.7 161.23 209.31 159.51 211.34 159.46C213.37 159.42 215.05 161.08 215.1 163.16Z" id="a6yk2byMuz"></path><path d="M235.47 182.41C235.51 184.49 233.9 186.21 231.87 186.25C229.84 186.29 228.15 184.64 228.11 182.56C228.07 180.48 229.68 178.75 231.71 178.71C233.74 178.67 235.42 180.33 235.47 182.41Z" id="d3BTAcYCk"></path><path d="M228.74 163.6C228.79 165.68 227.17 167.4 225.14 167.44C223.11 167.48 221.43 165.83 221.39 163.75C221.34 161.67 222.96 159.95 224.99 159.9C227.02 159.86 228.7 161.52 228.74 163.6Z" id="c3Je687GCe"></path><path d="M225.73 196.17C225.77 198.25 224.16 199.97 222.13 200.01C220.1 200.05 218.42 198.4 218.37 196.32C218.33 194.24 219.94 192.51 221.97 192.47C224 192.43 225.69 194.09 225.73 196.17Z" id="e1V2a38C1s"></path><path d="M218.78 204.6C218.82 206.68 217.2 208.4 215.17 208.44C213.14 208.49 211.46 206.83 211.42 204.75C211.38 202.67 212.99 200.95 215.02 200.9C217.05 200.86 218.73 202.52 218.78 204.6Z" id="adS5PxEWW"></path><path d="M163.32 262.06C163.36 264.14 161.74 265.87 159.71 265.91C157.68 265.95 156 264.29 155.96 262.21C155.92 260.13 157.53 258.41 159.56 258.37C161.59 258.33 163.27 259.98 163.32 262.06Z" id="a2vemdWsU7"></path><path d="M168.32 231.04C168.36 233.12 166.75 234.85 164.72 234.89C162.69 234.93 161 233.27 160.96 231.19C160.92 229.11 162.53 227.39 164.56 227.35C166.59 227.31 168.28 228.96 168.32 231.04Z" id="a2GioAG08"></path><path d="M183.8 223.99C183.84 226.07 182.23 227.79 180.2 227.84C178.17 227.88 176.49 226.22 176.44 224.14C176.4 222.06 178.01 220.34 180.04 220.3C182.08 220.25 183.76 221.91 183.8 223.99Z" id="d6TA1QabF"></path><path d="M171.21 215.36C171.25 217.44 169.64 219.16 167.61 219.2C165.58 219.25 163.9 217.59 163.85 215.51C163.81 213.43 165.42 211.71 167.45 211.66C169.49 211.62 171.17 213.28 171.21 215.36Z" id="a21Ex4fnT6"></path><path d="M201.31 260.21C201.35 262.29 199.74 264.01 197.71 264.05C195.67 264.1 193.99 262.44 193.95 260.36C193.91 258.28 195.52 256.56 197.55 256.51C199.58 256.47 201.26 258.13 201.31 260.21Z" id="a2QUf9CqtE"></path><path d="M215 257.24C215.05 259.32 213.43 261.04 211.4 261.08C209.37 261.12 207.69 259.47 207.65 257.39C207.6 255.31 209.22 253.58 211.25 253.54C213.28 253.5 214.96 255.16 215 257.24Z" id="b3Ao8HX8o2"></path><path d="M207.92 369.29C207.97 371.37 206.35 373.09 204.32 373.13C202.29 373.18 200.61 371.52 200.57 369.44C200.52 367.36 202.14 365.64 204.17 365.6C206.2 365.55 207.88 367.21 207.92 369.29Z" id="d16aGFGGKy"></path><path d="M248.22 238.78C248.26 240.86 246.64 242.58 244.61 242.62C242.58 242.66 240.9 241.01 240.86 238.93C240.82 236.85 242.43 235.12 244.46 235.08C246.49 235.04 248.17 236.7 248.22 238.78Z" id="a1XjFBSt9I"></path><path d="M245.72 220.87C245.76 222.95 244.15 224.67 242.12 224.71C240.09 224.76 238.4 223.1 238.36 221.02C238.32 218.94 239.93 217.22 241.96 217.18C243.99 217.13 245.67 218.79 245.72 220.87Z" id="iTkYdMieq"></path><path d="M241.67 207.03C241.71 209.11 240.1 210.84 238.06 210.88C236.03 210.92 234.35 209.27 234.31 207.18C234.27 205.1 235.88 203.38 237.91 203.34C239.94 203.3 241.62 204.95 241.67 207.03Z" id="b3QLo9JI8I"></path><path d="M192.5 243.69C192.54 245.77 190.93 247.49 188.9 247.53C186.87 247.57 185.18 245.92 185.14 243.84C185.1 241.76 186.71 240.03 188.74 239.99C190.77 239.95 192.46 241.61 192.5 243.69Z" id="a1DRZonQaY"></path><path d="M242.51 277.83C242.56 279.91 240.94 281.63 238.91 281.68C236.88 281.72 235.2 280.06 235.16 277.98C235.11 275.9 236.73 274.18 238.76 274.14C240.79 274.09 242.47 275.75 242.51 277.83Z" id="h1tqqKzJyM"></path><path d="M236.83 350.92C236.87 353 235.26 354.72 233.23 354.76C231.2 354.81 229.52 353.15 229.47 351.07C229.43 348.99 231.04 347.27 233.07 347.23C235.11 347.18 236.79 348.84 236.83 350.92Z" id="a1cK6jdCcJ"></path><path d="M186.53 329.52C186.58 331.6 184.96 333.32 182.93 333.37C180.9 333.41 179.22 331.75 179.18 329.67C179.13 327.59 180.75 325.87 182.78 325.83C184.81 325.79 186.49 327.44 186.53 329.52Z" id="asSSnzPIX"></path><path d="M178.27 305.06C178.32 307.14 176.7 308.86 174.67 308.9C172.64 308.94 170.96 307.29 170.92 305.21C170.87 303.13 172.49 301.41 174.52 301.36C176.55 301.32 178.23 302.98 178.27 305.06Z" id="a5w05wgRWy"></path><path d="M202.05 298.63C202.1 300.71 200.48 302.43 198.45 302.48C196.42 302.52 194.74 300.86 194.7 298.78C194.65 296.7 196.27 294.98 198.3 294.94C200.33 294.89 202.01 296.55 202.05 298.63Z" id="a4XoGAg5QZ"></path><path d="M226.46 295.74C226.5 297.82 224.88 299.54 222.85 299.58C220.82 299.63 219.14 297.97 219.1 295.89C219.06 293.81 220.67 292.09 222.7 292.04C224.73 292 226.41 293.66 226.46 295.74Z" id="k35gAplj96"></path><path d="M268.62 319.38C268.67 321.46 267.05 323.18 265.02 323.22C262.99 323.26 261.31 321.61 261.27 319.53C261.22 317.45 262.84 315.72 264.87 315.68C266.9 315.64 268.58 317.3 268.62 319.38Z" id="fPMXHLrbY"></path><path d="M268.2 298.78C268.24 300.86 266.63 302.58 264.6 302.63C262.57 302.67 260.89 301.01 260.84 298.93C260.8 296.85 262.42 295.13 264.45 295.09C266.48 295.04 268.16 296.7 268.2 298.78Z" id="e1AgIcRyFJ"></path><path d="M258.1 270.13C258.14 272.21 256.53 273.93 254.5 273.97C252.47 274.01 250.79 272.36 250.74 270.28C250.7 268.2 252.32 266.47 254.35 266.43C256.38 266.39 258.06 268.05 258.1 270.13Z" id="dbUebL1in"></path><path d="M215.86 400.27C215.9 402.35 214.29 404.07 212.26 404.11C210.23 404.15 208.54 402.5 208.5 400.42C208.46 398.34 210.07 396.61 212.1 396.57C214.13 396.53 215.82 398.18 215.86 400.27Z" id="a4FkaV6Ecn"></path><path d="M260.77 327.33C260.82 329.41 259.2 331.14 257.17 331.18C255.14 331.22 253.46 329.56 253.42 327.48C253.37 325.4 254.99 323.68 257.02 323.64C259.05 323.6 260.73 325.25 260.77 327.33Z" id="a2ilRuk5Yf"></path><path d="M258.19 381.19C258.24 383.27 256.62 384.99 254.59 385.03C252.56 385.08 250.88 383.42 250.84 381.34C250.79 379.26 252.41 377.54 254.44 377.49C256.47 377.45 258.15 379.11 258.19 381.19Z" id="cZ2Ays6AI"></path><path d="M283.81 393.32C283.85 395.4 282.24 397.12 280.21 397.16C278.18 397.2 276.5 395.55 276.45 393.47C276.41 391.38 278.03 389.66 280.06 389.62C282.09 389.58 283.77 391.23 283.81 393.32Z" id="a8sHjChc9"></path><path d="M292.71 366.99C292.75 369.07 291.13 370.79 289.1 370.83C287.07 370.87 285.39 369.22 285.35 367.14C285.31 365.06 286.92 363.34 288.95 363.29C290.98 363.25 292.66 364.91 292.71 366.99Z" id="bHyGmzpdn"></path><path d="M293.09 385.78C293.13 387.86 291.52 389.58 289.49 389.62C287.46 389.66 285.77 388.01 285.73 385.93C285.69 383.85 287.3 382.12 289.33 382.08C291.36 382.04 293.05 383.7 293.09 385.78Z" id="c25tFZh8g"></path><path d="M223.24 427.45C223.28 429.53 221.67 431.25 219.64 431.29C217.61 431.34 215.92 429.68 215.88 427.6C215.84 425.52 217.45 423.8 219.48 423.75C221.51 423.71 223.2 425.37 223.24 427.45Z" id="b4pu1yhFvo"></path><path d="M261.6 416.82C261.64 418.91 260.03 420.63 258 420.67C255.97 420.71 254.28 419.06 254.24 416.97C254.2 414.89 255.81 413.17 257.84 413.13C259.87 413.09 261.55 414.74 261.6 416.82Z" id="c4wbEdDOY"></path><path d="M297.43 441.94C297.47 444.02 295.86 445.74 293.83 445.78C291.8 445.83 290.12 444.17 290.07 442.09C290.03 440.01 291.64 438.29 293.67 438.24C295.7 438.2 297.39 439.86 297.43 441.94Z" id="gK0DUkd12"></path><path d="M238.33 465.93C238.38 468.01 236.76 469.73 234.73 469.77C232.7 469.81 231.02 468.16 230.98 466.08C230.93 464 232.55 462.27 234.58 462.23C236.61 462.19 238.29 463.85 238.33 465.93Z" id="cAQFsC1qt"></path><path d="M300.78 423.68C300.83 425.84 299.15 427.63 297.04 427.67C294.93 427.71 293.18 425.99 293.14 423.83C293.1 421.67 294.77 419.88 296.88 419.84C298.99 419.79 300.74 421.51 300.78 423.68Z" id="ajUBb3qsQ"></path><path d="M271.08 445.3C271.12 447.46 269.44 449.25 267.33 449.3C265.23 449.34 263.48 447.62 263.43 445.46C263.39 443.3 265.07 441.51 267.17 441.46C269.28 441.42 271.03 443.14 271.08 445.3Z" id="d26JRmQ8rX"></path><path d="M284.72 441.58C284.76 443.74 283.09 445.53 280.98 445.57C278.87 445.61 277.12 443.89 277.07 441.73C277.03 439.57 278.71 437.78 280.82 437.74C282.92 437.7 284.67 439.42 284.72 441.58Z" id="f3lP7mXosi"></path><path d="M244.58 484.7C244.62 486.86 242.95 488.65 240.84 488.69C238.73 488.74 236.98 487.02 236.94 484.86C236.89 482.69 238.57 480.91 240.68 480.86C242.79 480.82 244.54 482.54 244.58 484.7Z" id="apDAGVYp"></path><path d="M275.99 476.63C276.03 478.79 274.36 480.58 272.25 480.63C270.14 480.67 268.39 478.95 268.35 476.79C268.3 474.63 269.98 472.84 272.09 472.8C274.2 472.75 275.95 474.47 275.99 476.63Z" id="f4BlFG7zxm"></path><path d="M287.77 347.4C287.81 349.56 286.14 351.35 284.03 351.39C281.92 351.44 280.17 349.72 280.13 347.56C280.08 345.4 281.76 343.61 283.87 343.56C285.98 343.52 287.72 345.24 287.77 347.4Z" id="g1m2j0AACo"></path><path d="M291.16 409.34C291.2 411.5 289.52 413.29 287.42 413.33C285.31 413.37 283.56 411.66 283.51 409.49C283.47 407.33 285.15 405.54 287.26 405.5C289.36 405.46 291.11 407.18 291.16 409.34Z" id="i4AvRwRpC"></path><path d="M525.24 498.38C529.14 498.38 532.3 495.22 532.3 491.32C532.3 476.97 532.3 439.24 532.3 424.46C532.3 421.73 530.11 419.5 527.38 419.47C506.9 419.18 454.35 418.45 434.86 418.17C429.96 418.11 426.53 413.32 428.03 408.66C446.79 350.59 498.67 190.01 517.09 133C519.43 125.76 514.02 118.34 506.41 118.34C460.79 118.34 334.33 118.34 287.46 118.34C282.39 118.34 278.28 122.44 278.28 127.51C278.28 141.5 278.28 173.72 278.28 187.56C278.28 193.04 282.69 197.49 288.17 197.54C308.35 197.72 358.28 198.17 378.28 198.35C383.6 198.4 387.31 203.63 385.6 208.67C365.94 266.61 310.73 429.26 291.14 486.96C289.24 492.57 293.41 498.38 299.32 498.38C345.92 498.38 477.65 498.38 525.24 498.38Z" id="a1hZisPsFa"></path></defs><g><g><g><g><use xlink:href="#d1nZJZdW7S" opacity="1" fill="#272727" fill-opacity="1"></use></g><g><g><g><use xlink:href="#e1qRLBoC1D" opacity="1" fill-opacity="0" stroke="#000000" stroke-width="1" stroke-opacity="1"></use></g></g><g><g><use xlink:href="#a19uze5boT" opacity="1" fill-opacity="0" stroke="#000000" stroke-width="1" stroke-opacity="1"></use></g></g><g><g><use xlink:href="#fozCdAi2r" opacity="1" fill-opacity="0" stroke="#000000" stroke-width="1" stroke-opacity="1"></use></g></g><g><g><use xlink:href="#c4MRaZXBMw" opacity="1" fill-opacity="0" stroke="#000000" stroke-width="1" stroke-opacity="1"></use></g></g><g><g><use xlink:href="#a2RHPh0Q4V" opacity="1" fill-opacity="0" stroke="#000000" stroke-width="1" stroke-opacity="1"></use></g></g><g><g><use xlink:href="#a1fJX8igK" opacity="1" fill-opacity="0" stroke="#000000" stroke-width="1" stroke-opacity="1"></use></g></g><g><g><use xlink:href="#c6PD12CemG" opacity="1" fill-opacity="0" stroke="#000000" stroke-width="1" stroke-opacity="1"></use></g></g><g><g><use xlink:href="#b1LI4X1sxm" opacity="1" fill-opacity="0" stroke="#000000" stroke-width="1" stroke-opacity="1"></use></g></g><g><g><use xlink:href="#b23OBHxb0" opacity="1" fill-opacity="0" stroke="#000000" stroke-width="1" stroke-opacity="1"></use></g></g><g><g><use xlink:href="#b4pH8zK1eD" opacity="1" fill-opacity="0" stroke="#000000" stroke-width="1" stroke-opacity="1"></use></g></g><g><g><use xlink:href="#aETSxBJ4" opacity="1" fill-opacity="0" stroke="#000000" stroke-width="1" stroke-opacity="1"></use></g></g><g><g><use xlink:href="#altjFttLl" opacity="1" fill-opacity="0" stroke="#000000" stroke-width="1" stroke-opacity="1"></use></g></g><g><g><use xlink:href="#a2AdUua1RR" opacity="1" fill-opacity="0" stroke="#000000" stroke-width="1" stroke-opacity="1"></use></g></g><g><g><use xlink:href="#eNxzHAdhI" opacity="1" fill-opacity="0" stroke="#000000" stroke-width="1" stroke-opacity="1"></use></g></g><g><g><use xlink:href="#asKYcTF46" opacity="1" fill-opacity="0" stroke="#000000" stroke-width="1" stroke-opacity="1"></use></g></g><g><g><use xlink:href="#d5AQuvcM0" opacity="1" fill-opacity="0" stroke="#000000" stroke-width="1" stroke-opacity="1"></use></g></g><g><g><use xlink:href="#aWJP8QOk" opacity="1" fill-opacity="0" stroke="#000000" stroke-width="1" stroke-opacity="1"></use></g></g><g><g><use xlink:href="#b6tuB4nykX" opacity="1" fill-opacity="0" stroke="#000000" stroke-width="1" stroke-opacity="1"></use></g></g><g><g><use xlink:href="#crao62ptl" opacity="1" fill-opacity="0" stroke="#000000" stroke-width="1" stroke-opacity="1"></use></g></g><g><g><use xlink:href="#b7zTw2Hqc" opacity="1" fill-opacity="0" stroke="#000000" stroke-width="1" stroke-opacity="1"></use></g></g><g><g><use xlink:href="#baBhBsa7d" opacity="1" fill-opacity="0" stroke="#000000" stroke-width="1" stroke-opacity="1"></use></g></g><g><g><use xlink:href="#a5N5c6rnoh" opacity="1" fill-opacity="0" stroke="#000000" stroke-width="1" stroke-opacity="1"></use></g></g></g><g><g><g><use xlink:href="#a3xhcuOaiy" opacity="1" fill-opacity="0" stroke="#000000" stroke-width="1" stroke-opacity="1"></use></g></g><g><g><use xlink:href="#b9dPuxTxW" opacity="1" fill-opacity="0" stroke="#000000" stroke-width="1" stroke-opacity="1"></use></g></g><g><g><g><g><use xlink:href="#a1Lm1Yl5Gj" opacity="1" fill="#ffde00" fill-opacity="1"></use></g><g><use xlink:href="#e1Nd9F1kmA" opacity="1" fill="#ffde00" fill-opacity="1"></use></g><g><use xlink:href="#blOQ5FJrP" opacity="1" fill="#ffde00" fill-opacity="1"></use></g><g><use xlink:href="#c3bhIhtBBW" opacity="1" fill="#ffde00" fill-opacity="1"></use></g><g><use xlink:href="#a5tPweRKi" opacity="1" fill="#ffde00" fill-opacity="1"></use></g><g><use xlink:href="#as2H4RT3J" opacity="1" fill="#ffde00" fill-opacity="1"></use></g><g><use xlink:href="#boVcsaiVR" opacity="1" fill="#ffde00" fill-opacity="1"></use></g><g><use xlink:href="#c59ErI8OWH" opacity="1" fill="#ffde00" fill-opacity="1"></use></g><g><use xlink:href="#atueHHDr2" opacity="1" fill="#ffde00" fill-opacity="1"></use></g><g><use xlink:href="#a1niL07k1" opacity="1" fill="#ffde00" fill-opacity="1"></use></g><g><use xlink:href="#l33oJ0ERka" opacity="1" fill="#ffde00" fill-opacity="1"></use></g><g><use xlink:href="#b55E7cInpK" opacity="1" fill="#ffde00" fill-opacity="1"></use></g><g><use xlink:href="#ezqAStcwT" opacity="1" fill="#ffde00" fill-opacity="1"></use></g><g><use xlink:href="#f62bGosjG" opacity="1" fill="#ffde00" fill-opacity="1"></use></g><g><use xlink:href="#a19FUqhEfO" opacity="1" fill="#ffde00" fill-opacity="1"></use></g><g><use xlink:href="#bCDOG8047" opacity="1" fill="#ffde00" fill-opacity="1"></use></g><g><use xlink:href="#b1vzDwXYkh" opacity="1" fill="#ffde00" fill-opacity="1"></use></g><g><use xlink:href="#beqmWUyOf" opacity="1" fill="#ffde00" fill-opacity="1"></use></g><g><use xlink:href="#a6yk2byMuz" opacity="1" fill="#ffde00" fill-opacity="1"></use></g><g><use xlink:href="#d3BTAcYCk" opacity="1" fill="#ffde00" fill-opacity="1"></use></g><g><use xlink:href="#c3Je687GCe" opacity="1" fill="#ffde00" fill-opacity="1"></use></g><g><use xlink:href="#e1V2a38C1s" opacity="1" fill="#ffde00" fill-opacity="1"></use></g><g><use xlink:href="#adS5PxEWW" opacity="1" fill="#ffde00" fill-opacity="1"></use></g><g><use xlink:href="#a2vemdWsU7" opacity="1" fill="#ffde00" fill-opacity="1"></use></g><g><use xlink:href="#a2GioAG08" opacity="1" fill="#ffde00" fill-opacity="1"></use></g><g><use xlink:href="#d6TA1QabF" opacity="1" fill="#ffde00" fill-opacity="1"></use></g><g><use xlink:href="#a21Ex4fnT6" opacity="1" fill="#ffde00" fill-opacity="1"></use></g><g><use xlink:href="#a2QUf9CqtE" opacity="1" fill="#ffde00" fill-opacity="1"></use></g><g><use xlink:href="#b3Ao8HX8o2" opacity="1" fill="#ffde00" fill-opacity="1"></use></g><g><use xlink:href="#d16aGFGGKy" opacity="1" fill="#ffde00" fill-opacity="1"></use></g><g><use xlink:href="#a1XjFBSt9I" opacity="1" fill="#ffde00" fill-opacity="1"></use></g><g><use xlink:href="#iTkYdMieq" opacity="1" fill="#ffde00" fill-opacity="1"></use></g><g><use xlink:href="#b3QLo9JI8I" opacity="1" fill="#ffde00" fill-opacity="1"></use></g><g><use xlink:href="#a1DRZonQaY" opacity="1" fill="#ffde00" fill-opacity="1"></use></g><g><use xlink:href="#h1tqqKzJyM" opacity="1" fill="#ffde00" fill-opacity="1"></use></g><g><use xlink:href="#a1cK6jdCcJ" opacity="1" fill="#ffde00" fill-opacity="1"></use></g><g><use xlink:href="#asSSnzPIX" opacity="1" fill="#ffde00" fill-opacity="1"></use></g><g><use xlink:href="#a5w05wgRWy" opacity="1" fill="#ffde00" fill-opacity="1"></use></g><g><use xlink:href="#a4XoGAg5QZ" opacity="1" fill="#ffde00" fill-opacity="1"></use></g><g><use xlink:href="#k35gAplj96" opacity="1" fill="#ffde00" fill-opacity="1"></use></g><g><use xlink:href="#fPMXHLrbY" opacity="1" fill="#ffde00" fill-opacity="1"></use></g><g><use xlink:href="#e1AgIcRyFJ" opacity="1" fill="#ffde00" fill-opacity="1"></use></g><g><use xlink:href="#dbUebL1in" opacity="1" fill="#ffde00" fill-opacity="1"></use></g><g><use xlink:href="#a4FkaV6Ecn" opacity="1" fill="#ffde00" fill-opacity="1"></use></g><g><use xlink:href="#a2ilRuk5Yf" opacity="1" fill="#ffde00" fill-opacity="1"></use></g><g><use xlink:href="#cZ2Ays6AI" opacity="1" fill="#ffde00" fill-opacity="1"></use></g></g><g><use xlink:href="#a8sHjChc9" opacity="1" fill="#ffde00" fill-opacity="1"></use></g><g><use xlink:href="#bHyGmzpdn" opacity="1" fill="#ffde00" fill-opacity="1"></use></g><g><use xlink:href="#c25tFZh8g" opacity="1" fill="#ffde00" fill-opacity="1"></use></g><g><use xlink:href="#b4pu1yhFvo" opacity="1" fill="#ffde00" fill-opacity="1"></use></g><g><use xlink:href="#c4wbEdDOY" opacity="1" fill="#ffde00" fill-opacity="1"></use></g><g><use xlink:href="#gK0DUkd12" opacity="1" fill="#ffde00" fill-opacity="1"></use></g><g><use xlink:href="#cAQFsC1qt" opacity="1" fill="#ffde00" fill-opacity="1"></use></g></g><g><use xlink:href="#ajUBb3qsQ" opacity="1" fill="#ffde00" fill-opacity="1"></use></g><g><use xlink:href="#d26JRmQ8rX" opacity="1" fill="#ffde00" fill-opacity="1"></use></g><g><use xlink:href="#f3lP7mXosi" opacity="1" fill="#ffde00" fill-opacity="1"></use></g><g><use xlink:href="#apDAGVYp" opacity="1" fill="#ffde00" fill-opacity="1"></use></g><g><use xlink:href="#f4BlFG7zxm" opacity="1" fill="#ffde00" fill-opacity="1"></use></g><g><use xlink:href="#g1m2j0AACo" opacity="1" fill="#ffde00" fill-opacity="1"></use></g><g><use xlink:href="#i4AvRwRpC" opacity="1" fill="#ffde00" fill-opacity="1"></use></g></g></g><g><use xlink:href="#a1hZisPsFa" opacity="1" fill="#212121" fill-opacity="1"></use><g><use xlink:href="#a1hZisPsFa" opacity="1" fill-opacity="0" stroke="#000000" stroke-width="1" stroke-opacity="1"></use></g></g></g></g></g></svg>