<?xml version="1.0" encoding="UTF-8" standalone="no"?>
<!DOCTYPE svg PUBLIC "-//W3C//DTD SVG 1.1//EN" "http://www.w3.org/Graphics/SVG/1.1/DTD/svg11.dtd">
<svg width="100%" height="100%" viewBox="0 0 12917 4167" version="1.1" xmlns="http://www.w3.org/2000/svg" xmlns:xlink="http://www.w3.org/1999/xlink" xml:space="preserve" xmlns:serif="http://www.serif.com/" style="fill-rule:evenodd;clip-rule:evenodd;stroke-linejoin:round;stroke-miterlimit:2;">
    <rect id="Prancheta1" x="0" y="0" width="4166.67" height="4166.67" style="fill:none;"/>
    <g id="Prancheta11" serif:id="Prancheta1">
        <g id="Camada1">
            <g transform="matrix(1,0,0,1,-8656.72,11.2763)">
                <path d="M10929.2,3042.36C10929.2,3042.36 11021,3024.03 10999.4,3082.4C10977.9,3140.78 10923.7,3242.03 10923.7,3242.03L10835.6,3309.45L10752.1,3341.12L10708.9,3407.36L10705.6,3496.09C10705.6,3496.09 10709.7,3582.02 10716.7,3575.36C10723.6,3568.7 10785.3,3585.64 10785.3,3585.64L10875.1,3519.81L10956.8,3418.48L11019,3339.45L11089.7,3214.17L11188.5,3057.09L11200.1,3009.5L11185.2,2964.23L11155.4,2922.42L11119.9,2882.14L11111.6,2833.29L11181.6,2751.53L11308.9,2651.28L11370.3,2612.61L11434.3,2546.97L11532.7,2465.77L11606,2371.67L11670.4,2280.91L11725,2240.01L11760,2279.84L11740.2,2358.77L11669.5,2496.34L11598.3,2583.09L11532,2649.58L11447.9,2710.34L11372,2772.25L11298.7,2805.22L11240.4,2848.49L11243.4,2899.52L11291.2,2919.28L11383.1,2877.63L11649.7,2657.8L11781.6,2538.75L11944.6,2289.87L12088.9,2033.55L12185.9,1883.66L12224.6,1781.86L12197.7,1745.16L12136.4,1732.16L12099.1,1713.15L12178,1535.02L12237.5,1484.43L12282.7,1448.91L12292.9,1398.97L12283.3,1340.73L12259,1314.27L12145.2,1325.97L12024.2,1320.9L11831.8,1263.96L11648.1,1156.03L11515.8,1082.76L11420.7,1023.56L11251.5,962.618L11119.2,910.792L10998.1,918.414L10843.5,931.851L10761.7,956.053L10669.1,1112.85L10617.2,1286.92L10604.4,1466.39L10640.3,1673.6L10689.1,1845.95L10738.5,1986.79L10807.9,2126.66L10881.3,2274.76L10932.6,2433.02L10968.7,2577.59L10973.2,2699.23L10972.5,2835.9L10955.9,2966.55L10929.2,3042.36Z"/>
            </g>
            <path d="M2124.51,3181.27C2129.78,3183.97 2135.29,3185.61 2140.58,3185.61C2152.78,3185.61 2169.98,3175.49 2187.52,3159.86C2216.73,3133.82 2249.03,3093.43 2262.81,3081.25C2273.29,3071.98 2285.59,3063.49 2297.68,3061.05C2307.88,3058.99 2317.55,3062.42 2325.01,3074.83C2331.6,3085.8 2331.06,3098.67 2327.76,3111.59C2322.18,3133.43 2308.56,3155.42 2299.11,3171.52C2284.48,3196.45 2266.36,3226.61 2244.86,3252.71C2230.98,3269.56 2215.71,3284.72 2198.99,3295.43C2192.86,3299.36 2186.52,3301.98 2179.99,3303.99C2169.16,3307.32 2157.83,3309 2146.06,3311.44C2122.12,3316.41 2101.28,3326.9 2084.76,3341.39C2067.17,3356.81 2054.46,3376.76 2048.12,3399.48C2041.07,3424.72 2037.19,3451.76 2035.82,3478.95C2034.45,3505.97 2035.55,3533.13 2038.4,3558.75C2039.8,3571.23 2043.15,3587.37 2051.42,3599.04C2057.74,3607.94 2066.68,3614.51 2079.28,3616.26C2097.86,3618.83 2121.3,3609.97 2145.27,3594.64C2189.4,3566.44 2236.61,3517.15 2257.88,3496.84C2273.08,3482.33 2287.79,3467.3 2301.74,3451.7C2315.87,3435.92 2329.21,3419.56 2341.5,3402.59C2346.17,3396.15 2350.58,3386.8 2355.36,3377.89C2356.63,3377.01 2357.72,3375.83 2358.54,3374.4C2361.03,3370.01 2363.77,3365.42 2366.74,3360.64L2367.71,3359.74C2369.68,3358.03 2370.89,3355.76 2371.3,3353.37C2407.34,3296.86 2469.3,3217.64 2511.75,3145.61C2536.27,3104.01 2554.26,3064.6 2558.12,3032.97C2561.5,3005.35 2547.66,2981.79 2528.03,2959.87C2504.34,2933.44 2471.49,2909.75 2462.3,2880.37C2458.87,2869.39 2459.34,2857.57 2465.69,2844.37C2474.55,2825.92 2492.96,2806.12 2515.28,2786.22C2563.25,2743.46 2629.26,2701.03 2666.03,2673.21C2695.03,2651.25 2723.67,2628.82 2751.65,2605.74C2779.82,2582.51 2807.32,2558.62 2833.9,2533.92C2864.08,2505.85 2889.83,2476.19 2913.47,2445.44C2949.17,2398.99 2980.01,2350.06 3014.2,2300.49C3021.47,2289.95 3035.91,2272.3 3051.98,2265.32C3059.96,2261.85 3068.45,2261.58 3076.04,2268.82C3092.02,2284.05 3089.96,2310.77 3082.72,2338.93C3071.43,2382.85 3045.14,2430.28 3032.08,2452.4C2995.79,2513.89 2947.99,2571.37 2894.47,2624.32C2841.68,2676.54 2783.32,2724.36 2724.85,2767.25C2694.79,2789.3 2643.74,2801.05 2609.34,2820.28C2597.89,2826.68 2588.13,2833.89 2581.01,2842.23C2559.3,2867.64 2562.62,2898.71 2579.88,2919.92C2595.73,2939.42 2623.63,2950.64 2654.74,2940.46C2677.74,2932.93 2701.36,2919.8 2724.71,2903.79C2774.77,2869.47 2823.72,2821.78 2862.76,2790.81L2990.54,2687.18C3001.85,2677.39 3015.17,2660.77 3029.01,2648.22L3030.47,2646.95L3030.66,2646.82L3040.76,2639.03C3042.26,2638.07 3043.78,2637.22 3045.3,2636.51C3047.72,2635.37 3049.52,2633.46 3050.55,2631.2C3098.69,2592.15 3139.32,2549.41 3175.3,2503.87C3237.66,2424.93 3286,2337.56 3335.39,2246.39L3499.92,1950.6C3516.45,1919.86 3544.49,1887.54 3561.92,1853.69C3570.42,1837.19 3576.48,1820.32 3578.12,1803.15C3579.88,1784.75 3573.47,1772.69 3562.89,1764.2C3544.49,1749.45 3509.08,1748.01 3483.62,1740.64C3470.8,1736.94 3460.97,1731.32 3464.7,1715.83C3469.4,1696.29 3486.37,1649.74 3503.73,1608.56C3515.96,1579.57 3528.3,1553.25 3536.73,1541.36C3552.7,1518.87 3598.33,1504.73 3622.17,1484.16C3631.58,1476.05 3638.07,1467 3640.42,1456.94C3641.36,1452.92 3641.79,1448.63 3641.84,1444.17C3642,1430.86 3638.28,1415.71 3639.36,1403.07C3640.44,1390.46 3643.03,1375.1 3642.19,1360.69C3641.53,1349.26 3638.76,1338.41 3632.46,1329.32C3628.85,1324.11 3623.9,1320.92 3618.16,1319.23C3609.17,1316.59 3597.67,1318.34 3589.05,1319.81C3525.97,1330.57 3464.61,1332.31 3404.01,1325.9C3343.37,1319.48 3283.5,1304.9 3223.41,1283.04C3053.07,1221.08 2912.18,1103.39 2754.23,1019.39C2685.76,982.975 2614.14,952.811 2535.72,935.851C2476.38,923.015 2410.54,914.024 2344.64,911.974C2278.43,909.913 2212.14,914.868 2152.21,929.863C2146.28,931.349 2136.24,935.834 2125.09,941.553C2108.73,949.939 2089.65,961.458 2079.72,967.113C2079.58,964.685 2078.63,962.291 2076.85,960.371C2045.94,927.008 2006.58,900.116 1963.34,878.159C1901.39,846.71 1831.45,825.373 1767.58,809.2C1507,743.217 1266.63,802.375 1081.78,934.648C886.967,1074.06 753.892,1294.81 724.002,1536.01C692.651,1789.01 785.114,2032.79 940.632,2253.39C1158.02,2561.75 1498.62,2824.82 1792.45,3004.34C1855.24,3042.7 1918.32,3081.92 1983.78,3117.12C2027.38,3140.57 2072.04,3162.24 2118.36,3180.71C2120.39,3181.52 2122.52,3181.68 2124.51,3181.27ZM3028.03,2621.37C3078.77,2581.46 3121.05,2537.46 3158.23,2490.39C3219.83,2412.42 3267.48,2326.08 3316.27,2236.03L3480.76,1940.3C3497.24,1909.66 3525.21,1877.47 3542.59,1843.73C3549.77,1829.79 3555.08,1815.59 3556.47,1801.08C3558.45,1780.43 3541.67,1775.04 3523.42,1770.92C3499.05,1765.43 3471.06,1762.85 3456.15,1751.64C3444.88,1743.17 3438.73,1730.79 3443.56,1710.74C3448.4,1690.6 3465.79,1642.57 3483.69,1600.11C3496.69,1569.29 3510.03,1541.41 3519,1528.78C3535.76,1505.16 3582.94,1489.29 3607.97,1467.7C3613.52,1462.91 3617.86,1457.92 3619.25,1451.99L3617.69,1401.22C3618.69,1389.53 3621.26,1375.31 3620.48,1361.95C3620.06,1354.62 3618.63,1347.55 3614.58,1341.71C3613.12,1339.6 3610.45,1339.61 3607.87,1339.53C3602.69,1339.37 3597.18,1340.49 3592.71,1341.25C3527.6,1352.35 3464.27,1354.15 3401.72,1347.53C3339.36,1340.93 3277.77,1325.96 3215.98,1303.48C3044.68,1241.17 2902.86,1123.07 2744.02,1038.59C2677.3,1003.11 2607.54,973.634 2531.13,957.108C2473,944.535 2408.52,935.72 2343.96,933.711C2279.8,931.715 2215.57,936.431 2157.49,950.961C2152.55,952.198 2144.3,956.146 2135.01,960.906C2125.84,965.61 2115.8,971.006 2106.64,975.984C2106.83,976.591 2106.96,977.226 2107.04,977.882C2107.68,983.433 2104.01,988.497 2098.69,989.72C2098.01,990.307 2094.74,993.215 2092.59,995.802C2083.52,1006.7 2071.89,1025.93 2060.14,1047.19C2036.53,1089.93 2012.64,1140.84 2008.39,1151.57C1974.38,1237.63 1961.32,1340.9 1962.96,1444.74C1964.42,1537.33 1977.6,1630.38 1998.24,1712.22C1999.58,1713.62 2000.56,1715.39 2001,1717.42C2055.49,1971.22 2214.7,2201.92 2291.49,2448.56C2325.29,2557.11 2343.28,2668.69 2330.17,2786.53C2321.18,2867.24 2324.97,2931.23 2305.96,2992.72C2300.84,3009.3 2294.1,3025.71 2285.04,3042.2C2291.81,3039.77 2298.6,3038.48 2305.14,3038.71C2319.35,3039.19 2333.01,3045.92 2343.65,3063.64C2353.23,3079.59 2353.63,3098.19 2348.83,3116.97C2342.74,3140.81 2328.18,3164.95 2317.87,3182.52C2302.72,3208.34 2283.91,3239.51 2261.64,3266.54C2246.27,3285.2 2229.25,3301.88 2210.72,3313.74C2202.86,3318.78 2194.75,3322.2 2186.38,3324.78C2174.91,3328.3 2162.93,3330.16 2150.47,3332.74C2130.42,3336.89 2112.93,3345.61 2099.1,3357.74C2084.69,3370.38 2074.26,3386.72 2069.06,3405.34C2062.43,3429.06 2058.83,3454.49 2057.53,3480.05C2056.23,3505.88 2057.29,3531.85 2060.02,3556.34C2060.9,3564.27 2062.53,3574.23 2066.76,3582.46C2069.87,3588.53 2074.53,3593.64 2082.27,3594.72C2101.21,3597.34 2125.62,3583.01 2150.24,3564.77C2187.85,3536.9 2224.85,3498.31 2242.87,3481.11C2257.65,3466.99 2271.97,3452.37 2285.53,3437.2C2299.16,3421.97 2312.03,3406.2 2323.89,3389.83C2329.76,3381.72 2335.11,3368.71 2341.51,3358.25C2343.97,3354.23 2346.58,3350.53 2349.37,3347.41C2384.9,3290.57 2449.29,3208.75 2493.02,3134.57C2515.76,3095.99 2532.95,3059.67 2536.53,3030.33C2539.81,3003.49 2520.39,2982.51 2499.74,2961.64C2476,2937.65 2450.06,2914.08 2441.55,2886.86C2436.6,2871.04 2436.94,2853.98 2446.09,2834.94C2455.93,2814.45 2476,2792.1 2500.81,2769.98C2549.22,2726.83 2615.79,2683.95 2652.9,2655.86C2681.67,2634.09 2710.06,2611.85 2737.81,2588.96C2765.64,2566 2792.83,2542.4 2819.09,2517.99C2848.35,2490.78 2873.31,2462 2896.22,2432.18C2931.7,2386.03 2962.32,2337.4 2996.3,2288.14C3005.25,2275.17 3023.53,2253.97 3043.31,2245.38C3059.18,2238.47 3075.95,2238.68 3091.05,2253.08C3107.79,2269.04 3112.2,2294.01 3108.23,2322.3C3101.04,2373.64 3066.73,2436.47 3050.81,2463.45C3013.6,2526.5 2964.65,2585.48 2909.77,2639.78C2856.22,2692.75 2797.03,2741.28 2737.71,2784.79C2707.03,2807.3 2655.07,2819.63 2619.95,2839.26C2610.95,2844.3 2603.15,2849.8 2597.55,2856.35C2583.62,2872.66 2585.68,2892.59 2596.75,2906.2C2607.57,2919.51 2626.73,2926.74 2647.97,2919.79C2675.84,2910.67 2704.57,2892.46 2732.59,2871.29C2775.07,2839.21 2815.8,2800.3 2849.24,2773.78L2976.31,2670.73C2987.51,2661.04 3000.68,2644.55 3014.4,2632.11C3018.89,2628.03 3023.46,2624.37 3028.03,2621.37ZM2064.25,977.6C2063.02,977.029 2061.88,976.21 2060.89,975.151C2031.67,943.61 1994.38,918.309 1953.49,897.551C1892.98,866.832 1824.63,846.081 1762.24,830.282C1508.51,766.033 1274.43,823.535 1094.44,952.335C904.486,1088.27 774.729,1303.5 745.585,1538.68C714.889,1786.4 806.139,2024.87 958.407,2240.86C1174.11,2546.83 1512.24,2807.66 1803.79,2985.78C1866.24,3023.94 1928.97,3062.95 1994.08,3097.97C2030.65,3117.63 2067.97,3136.03 2106.43,3152.29C2110.28,3148.94 2116.1,3148.69 2120.26,3151.96C2122.44,3153.68 2125.01,3155.78 2127.81,3157.77C2130.08,3157.51 2132.43,3157.96 2134.49,3159.18C2135.53,3158.95 2139,3158.11 2141.34,3157.04C2150.6,3152.85 2162.11,3144.62 2173.32,3135.72C2193.56,3119.64 2212.69,3101.18 2216.22,3097.55C2253.58,3059.15 2273.77,3023.22 2285.18,2986.29C2303.82,2926.02 2299.75,2863.25 2308.55,2784.12C2321.33,2669.37 2303.64,2560.73 2270.73,2455.02C2196.5,2216.63 2045.67,1993 1986,1749.19C1985.54,1748.42 1985.19,1747.59 1984.93,1746.7C1959.48,1656.66 1942.88,1550.58 1941.22,1445.08C1939.53,1338.28 1953.18,1232.09 1988.17,1143.58C1993.11,1131.09 2023.97,1065.44 2050.95,1019.35C2057.26,1008.57 2063.7,998.988 2069.76,991.123C2066.54,989.581 2064.15,986.482 2063.67,982.679C2063.45,980.902 2063.67,979.171 2064.25,977.6Z"/>
            <g transform="matrix(1,0,0,0.909448,0,71.8037)">
                <path d="M1266.3,2990.14C1258.64,2927.57 1246.92,2818.5 1229.76,2749.76C1220.02,2710.74 1206.19,2684.43 1193.24,2679.45C1165.27,2668.7 1122.74,2663.49 1074.87,2661.62C980.255,2657.95 864.33,2666.91 803.058,2667.4L670.831,2668L632.865,2666.58C628.465,2664.09 622.927,2664.86 619.222,2668.89C612.848,2675.83 614.803,2681.88 618.167,2686.57C619.648,2688.64 625.416,2691.49 626.824,2691.83C626.824,2691.83 670.831,2693.88 670.831,2693.88L803.227,2693.27C864.274,2692.79 979.772,2683.82 1074.04,2687.48C1119.08,2689.23 1159.15,2693.75 1185.47,2703.87C1189.76,2705.52 1192.53,2712.46 1196.19,2721.49C1203.04,2738.33 1209.07,2762.69 1214.5,2790.46C1232.07,2880.24 1242.87,3004.63 1248.98,3036.29C1249.37,3038.31 1255.01,3091.06 1258.29,3111.62C1260.74,3126.97 1272.65,3130.51 1273.87,3130.27C1275.36,3129.97 1283.6,3124.5 1285.09,3110.88C1287.41,3089.64 1289.49,3035.16 1289.51,3032.97C1290.3,2900.57 1292.8,2767.58 1297.71,2634.68C1302.62,2501.89 1309.95,2369.18 1320.4,2237.25L1338.3,2014.94C1338.71,2009.41 1340.35,1995.62 1342.46,1980.16C1343.82,1988.71 1344.74,1994.85 1344.82,1995.48C1357.51,2106.52 1364.1,2370.28 1375.38,2539.89C1379.52,2602.26 1384.37,2652.1 1390.27,2677.61C1391.14,2681.38 1405.76,2696.1 1412.96,2678.81C1413.74,2676.92 1415.21,2672.8 1417.12,2667.08C1425.64,2641.59 1443.92,2582.15 1450.25,2555.69L1488.8,2379.61C1489.55,2405.38 1489.44,2431.13 1488.95,2456.87C1487.75,2519.51 1484.26,2582.11 1484.81,2644.81C1485.31,2702.85 1500.84,2722.8 1527.27,2729.98C1553.03,2736.98 1593.72,2728.47 1650.53,2732.22L1774.93,2739.63L1972.54,2750.92C1979.01,2751.54 1984.72,2746.26 1985.28,2739.15C1985.84,2732.03 1981.04,2725.76 1974.57,2725.14L1775.85,2713.78L1651.94,2706.39C1597.08,2702.77 1557.79,2711.62 1532.91,2704.86C1514.93,2699.97 1508.68,2684.05 1508.33,2644.57C1507.79,2582.13 1511.28,2519.79 1512.47,2457.41C1512.99,2430.39 1513.09,2403.36 1512.26,2376.31C1512.01,2368.34 1514.37,2337.15 1510.93,2319.01C1508.96,2308.64 1504.57,2301.55 1499.74,2298.48C1498.85,2297.92 1484.88,2296.52 1480.85,2310.99C1477.19,2324.13 1469.37,2357.64 1468.91,2359.94L1427.49,2549.11C1423.4,2566.24 1414.18,2597.47 1405.98,2623.88C1403.36,2600.07 1401.02,2570.82 1398.84,2538C1387.54,2367.97 1380.89,2103.56 1368.16,1992.25C1367.94,1990.35 1360.26,1940.01 1355.96,1920.46C1353.66,1910 1348.52,1904.96 1347.37,1904.35C1343.49,1902.3 1336.35,1900.7 1331.41,1910.1C1330.5,1911.84 1329.08,1916.09 1327.79,1922.24C1323.1,1944.57 1315.8,2000.01 1314.85,2012.83L1296.95,2235C1286.47,2367.33 1279.13,2500.44 1274.2,2633.63C1269.8,2752.56 1267.34,2871.56 1266.3,2990.14ZM638.672,2674.06C640.02,2678.56 639.049,2683.72 635.781,2687.27C640.322,2682.33 640.316,2677.86 638.672,2674.06Z"/>
            </g>
        </g>
    </g>
    <rect id="Prancheta2" x="4375" y="0" width="4166.67" height="4166.67" style="fill:none;"/>
    <g id="Prancheta21" serif:id="Prancheta2">
        <g id="Camada11" serif:id="Camada1" transform="matrix(1,0,0,1,4215.65,55.216)">
            <g transform="matrix(1,0,0,1,-8671.61,26.8943)">
                <path d="M10929.2,3042.36C10929.2,3042.36 11021,3024.03 10999.4,3082.4C10977.9,3140.78 10923.7,3242.03 10923.7,3242.03L10835.6,3309.45L10752.1,3341.12L10708.9,3407.36L10705.6,3496.09C10705.6,3496.09 10709.7,3582.02 10716.7,3575.36C10723.6,3568.7 10785.3,3585.64 10785.3,3585.64L10875.1,3519.81L10956.8,3418.48L11019,3339.45L11089.7,3214.17L11188.5,3057.09L11200.1,3009.5L11185.2,2964.23L11155.4,2922.42L11119.9,2882.14L11111.6,2833.29L11181.6,2751.53L11308.9,2651.28L11370.3,2612.61L11434.3,2546.97L11532.7,2465.77L11606,2371.67L11670.4,2280.91L11725,2240.01L11760,2279.84L11740.2,2358.77L11669.5,2496.34L11598.3,2583.09L11532,2649.58L11447.9,2710.34L11372,2772.25L11298.7,2805.22L11240.4,2848.49L11243.4,2899.52L11291.2,2919.28L11383.1,2877.63L11649.7,2657.8L11781.6,2538.75L11944.6,2289.87L12088.9,2033.55L12185.9,1883.66L12224.6,1781.86L12197.7,1745.16L12136.4,1732.16L12099.1,1713.15L12178,1535.02L12237.5,1484.43L12282.7,1448.91L12292.9,1398.97L12283.3,1340.73L12259,1314.27L12145.2,1325.97L12024.2,1320.9L11831.8,1263.96L11648.1,1156.03L11515.8,1082.76L11420.7,1023.56L11251.5,962.618L11119.2,910.792L10998.1,918.414L10843.5,931.851L10761.7,956.053L10669.1,1112.85L10617.2,1286.92L10604.4,1466.39L10640.3,1673.6L10689.1,1845.95L10738.5,1986.79L10807.9,2126.66L10881.3,2274.76L10932.6,2433.02L10968.7,2577.59L10973.2,2699.23L10972.5,2835.9L10955.9,2966.55L10929.2,3042.36Z" style="fill:#fff;"/>
            </g>
            <path d="M2124.51,3181.27C2129.78,3183.97 2135.29,3185.61 2140.58,3185.61C2152.78,3185.61 2169.98,3175.49 2187.52,3159.86C2216.73,3133.82 2249.03,3093.43 2262.81,3081.25C2273.29,3071.98 2285.59,3063.49 2297.68,3061.05C2307.88,3058.99 2317.55,3062.42 2325.01,3074.83C2331.6,3085.8 2331.06,3098.67 2327.76,3111.59C2322.18,3133.43 2308.56,3155.42 2299.11,3171.52C2284.48,3196.45 2266.36,3226.61 2244.86,3252.71C2230.98,3269.56 2215.71,3284.72 2198.99,3295.43C2192.86,3299.36 2186.52,3301.98 2179.99,3303.99C2169.16,3307.32 2157.83,3309 2146.06,3311.44C2122.12,3316.41 2101.28,3326.9 2084.76,3341.39C2067.17,3356.81 2054.46,3376.76 2048.12,3399.48C2041.07,3424.72 2037.19,3451.76 2035.82,3478.95C2034.45,3505.97 2035.55,3533.13 2038.4,3558.75C2039.8,3571.23 2043.15,3587.37 2051.42,3599.04C2057.74,3607.94 2066.68,3614.51 2079.28,3616.26C2097.86,3618.83 2121.3,3609.97 2145.27,3594.64C2189.4,3566.44 2236.61,3517.15 2257.88,3496.84C2273.08,3482.33 2287.79,3467.3 2301.74,3451.7C2315.87,3435.92 2329.21,3419.56 2341.5,3402.59C2346.17,3396.15 2350.58,3386.8 2355.36,3377.89C2356.63,3377.01 2357.72,3375.83 2358.54,3374.4C2361.03,3370.01 2363.77,3365.42 2366.74,3360.64L2367.71,3359.74C2369.68,3358.03 2370.89,3355.76 2371.3,3353.37C2407.34,3296.86 2469.3,3217.64 2511.75,3145.61C2536.27,3104.01 2554.26,3064.6 2558.12,3032.97C2561.5,3005.35 2547.66,2981.79 2528.03,2959.87C2504.34,2933.44 2471.49,2909.75 2462.3,2880.37C2458.87,2869.39 2459.34,2857.57 2465.69,2844.37C2474.55,2825.92 2492.96,2806.12 2515.28,2786.22C2563.25,2743.46 2629.26,2701.03 2666.03,2673.21C2695.03,2651.25 2723.67,2628.82 2751.65,2605.74C2779.82,2582.51 2807.32,2558.62 2833.9,2533.92C2864.08,2505.85 2889.83,2476.19 2913.47,2445.44C2949.17,2398.99 2980.01,2350.06 3014.2,2300.49C3021.47,2289.95 3035.91,2272.3 3051.98,2265.32C3059.96,2261.85 3068.45,2261.58 3076.04,2268.82C3092.02,2284.05 3089.96,2310.77 3082.72,2338.93C3071.43,2382.85 3045.14,2430.28 3032.08,2452.4C2995.79,2513.89 2947.99,2571.37 2894.47,2624.32C2841.68,2676.54 2783.32,2724.36 2724.85,2767.25C2694.79,2789.3 2643.74,2801.05 2609.34,2820.28C2597.89,2826.68 2588.13,2833.89 2581.01,2842.23C2559.3,2867.64 2562.62,2898.71 2579.88,2919.92C2595.73,2939.42 2623.63,2950.64 2654.74,2940.46C2677.74,2932.93 2701.36,2919.8 2724.71,2903.79C2774.77,2869.47 2823.72,2821.78 2862.76,2790.81L2990.54,2687.18C3001.85,2677.39 3015.17,2660.77 3029.01,2648.22L3030.47,2646.95L3030.66,2646.82L3040.76,2639.03C3042.26,2638.07 3043.78,2637.22 3045.3,2636.51C3047.72,2635.37 3049.52,2633.46 3050.55,2631.2C3098.69,2592.15 3139.32,2549.41 3175.3,2503.87C3237.66,2424.93 3286,2337.56 3335.39,2246.39L3499.92,1950.6C3516.45,1919.86 3544.49,1887.54 3561.92,1853.69C3570.42,1837.19 3576.48,1820.32 3578.12,1803.15C3579.88,1784.75 3573.47,1772.69 3562.89,1764.2C3544.49,1749.45 3509.08,1748.01 3483.62,1740.64C3470.8,1736.94 3460.97,1731.32 3464.7,1715.83C3469.4,1696.29 3486.37,1649.74 3503.73,1608.56C3515.96,1579.57 3528.3,1553.25 3536.73,1541.36C3552.7,1518.87 3598.33,1504.73 3622.17,1484.16C3631.58,1476.05 3638.07,1467 3640.42,1456.94C3641.36,1452.92 3641.79,1448.63 3641.84,1444.17C3642,1430.86 3638.28,1415.71 3639.36,1403.07C3640.44,1390.46 3643.03,1375.1 3642.19,1360.69C3641.53,1349.26 3638.76,1338.41 3632.46,1329.32C3628.85,1324.11 3623.9,1320.92 3618.16,1319.23C3609.17,1316.59 3597.67,1318.34 3589.05,1319.81C3525.97,1330.57 3464.61,1332.31 3404.01,1325.9C3343.37,1319.48 3283.5,1304.9 3223.41,1283.04C3053.07,1221.08 2912.18,1103.39 2754.23,1019.39C2685.76,982.975 2614.14,952.811 2535.72,935.851C2476.38,923.015 2410.54,914.024 2344.64,911.974C2278.43,909.913 2212.14,914.868 2152.21,929.863C2146.28,931.349 2136.24,935.834 2125.09,941.553C2108.73,949.939 2089.65,961.458 2079.72,967.113C2079.58,964.685 2078.63,962.291 2076.85,960.371C2045.94,927.008 2006.58,900.116 1963.34,878.159C1901.39,846.71 1831.45,825.373 1767.58,809.2C1507,743.217 1266.63,802.375 1081.78,934.648C886.967,1074.06 753.892,1294.81 724.002,1536.01C692.651,1789.01 785.114,2032.79 940.632,2253.39C1158.02,2561.75 1498.62,2824.82 1792.45,3004.34C1855.24,3042.7 1918.32,3081.92 1983.78,3117.12C2027.38,3140.57 2072.04,3162.24 2118.36,3180.71C2120.39,3181.52 2122.52,3181.68 2124.51,3181.27ZM3028.03,2621.37C3078.77,2581.46 3121.05,2537.46 3158.23,2490.39C3219.83,2412.42 3267.48,2326.08 3316.27,2236.03L3480.76,1940.3C3497.24,1909.66 3525.21,1877.47 3542.59,1843.73C3549.77,1829.79 3555.08,1815.59 3556.47,1801.08C3558.45,1780.43 3541.67,1775.04 3523.42,1770.92C3499.05,1765.43 3471.06,1762.85 3456.15,1751.64C3444.88,1743.17 3438.73,1730.79 3443.56,1710.74C3448.4,1690.6 3465.79,1642.57 3483.69,1600.11C3496.69,1569.29 3510.03,1541.41 3519,1528.78C3535.76,1505.16 3582.94,1489.29 3607.97,1467.7C3613.52,1462.91 3617.86,1457.92 3619.25,1451.99L3617.69,1401.22C3618.69,1389.53 3621.26,1375.31 3620.48,1361.95C3620.06,1354.62 3618.63,1347.55 3614.58,1341.71C3613.12,1339.6 3610.45,1339.61 3607.87,1339.53C3602.69,1339.37 3597.18,1340.49 3592.71,1341.25C3527.6,1352.35 3464.27,1354.15 3401.72,1347.53C3339.36,1340.93 3277.77,1325.96 3215.98,1303.48C3044.68,1241.17 2902.86,1123.07 2744.02,1038.59C2677.3,1003.11 2607.54,973.634 2531.13,957.108C2473,944.535 2408.52,935.72 2343.96,933.711C2279.8,931.715 2215.57,936.431 2157.49,950.961C2152.55,952.198 2144.3,956.146 2135.01,960.906C2125.84,965.61 2115.8,971.006 2106.64,975.984C2106.83,976.591 2106.96,977.226 2107.04,977.882C2107.68,983.433 2104.01,988.497 2098.69,989.72C2098.01,990.307 2094.74,993.215 2092.59,995.802C2083.52,1006.7 2071.89,1025.93 2060.14,1047.19C2036.53,1089.93 2012.64,1140.84 2008.39,1151.57C1974.38,1237.63 1961.32,1340.9 1962.96,1444.74C1964.42,1537.33 1977.6,1630.38 1998.24,1712.22C1999.58,1713.62 2000.56,1715.39 2001,1717.42C2055.49,1971.22 2214.7,2201.92 2291.49,2448.56C2325.29,2557.11 2343.28,2668.69 2330.17,2786.53C2321.18,2867.24 2324.97,2931.23 2305.96,2992.72C2300.84,3009.3 2294.1,3025.71 2285.04,3042.2C2291.81,3039.77 2298.6,3038.48 2305.14,3038.71C2319.35,3039.19 2333.01,3045.92 2343.65,3063.64C2353.23,3079.59 2353.63,3098.19 2348.83,3116.97C2342.74,3140.81 2328.18,3164.95 2317.87,3182.52C2302.72,3208.34 2283.91,3239.51 2261.64,3266.54C2246.27,3285.2 2229.25,3301.88 2210.72,3313.74C2202.86,3318.78 2194.75,3322.2 2186.38,3324.78C2174.91,3328.3 2162.93,3330.16 2150.47,3332.74C2130.42,3336.89 2112.93,3345.61 2099.1,3357.74C2084.69,3370.38 2074.26,3386.72 2069.06,3405.34C2062.43,3429.06 2058.83,3454.49 2057.53,3480.05C2056.23,3505.88 2057.29,3531.85 2060.02,3556.34C2060.9,3564.27 2062.53,3574.23 2066.76,3582.46C2069.87,3588.53 2074.53,3593.64 2082.27,3594.72C2101.21,3597.34 2125.62,3583.01 2150.24,3564.77C2187.85,3536.9 2224.85,3498.31 2242.87,3481.11C2257.65,3466.99 2271.97,3452.37 2285.53,3437.2C2299.16,3421.97 2312.03,3406.2 2323.89,3389.83C2329.76,3381.72 2335.11,3368.71 2341.51,3358.25C2343.97,3354.23 2346.58,3350.53 2349.37,3347.41C2384.9,3290.57 2449.29,3208.75 2493.02,3134.57C2515.76,3095.99 2532.95,3059.67 2536.53,3030.33C2539.81,3003.49 2520.39,2982.51 2499.74,2961.64C2476,2937.65 2450.06,2914.08 2441.55,2886.86C2436.6,2871.04 2436.94,2853.98 2446.09,2834.94C2455.93,2814.45 2476,2792.1 2500.81,2769.98C2549.22,2726.83 2615.79,2683.95 2652.9,2655.86C2681.67,2634.09 2710.06,2611.85 2737.81,2588.96C2765.64,2566 2792.83,2542.4 2819.09,2517.99C2848.35,2490.78 2873.31,2462 2896.22,2432.18C2931.7,2386.03 2962.32,2337.4 2996.3,2288.14C3005.25,2275.17 3023.53,2253.97 3043.31,2245.38C3059.18,2238.47 3075.95,2238.68 3091.05,2253.08C3107.79,2269.04 3112.2,2294.01 3108.23,2322.3C3101.04,2373.64 3066.73,2436.47 3050.81,2463.45C3013.6,2526.5 2964.65,2585.48 2909.77,2639.78C2856.22,2692.75 2797.03,2741.28 2737.71,2784.79C2707.03,2807.3 2655.07,2819.63 2619.95,2839.26C2610.95,2844.3 2603.15,2849.8 2597.55,2856.35C2583.62,2872.66 2585.68,2892.59 2596.75,2906.2C2607.57,2919.51 2626.73,2926.74 2647.97,2919.79C2675.84,2910.67 2704.57,2892.46 2732.59,2871.29C2775.07,2839.21 2815.8,2800.3 2849.24,2773.78L2976.31,2670.73C2987.51,2661.04 3000.68,2644.55 3014.4,2632.11C3018.89,2628.03 3023.46,2624.37 3028.03,2621.37ZM2064.25,977.6C2063.02,977.029 2061.88,976.21 2060.89,975.151C2031.67,943.61 1994.38,918.309 1953.49,897.551C1892.98,866.832 1824.63,846.081 1762.24,830.282C1508.51,766.033 1274.43,823.535 1094.44,952.335C904.486,1088.27 774.729,1303.5 745.585,1538.68C714.889,1786.4 806.139,2024.87 958.407,2240.86C1174.11,2546.83 1512.24,2807.66 1803.79,2985.78C1866.24,3023.94 1928.97,3062.95 1994.08,3097.97C2030.65,3117.63 2067.97,3136.03 2106.43,3152.29C2110.28,3148.94 2116.1,3148.69 2120.26,3151.96C2122.44,3153.68 2125.01,3155.78 2127.81,3157.77C2130.08,3157.51 2132.43,3157.96 2134.49,3159.18C2135.53,3158.95 2139,3158.11 2141.34,3157.04C2150.6,3152.85 2162.11,3144.62 2173.32,3135.72C2193.56,3119.64 2212.69,3101.18 2216.22,3097.55C2253.58,3059.15 2273.77,3023.22 2285.18,2986.29C2303.82,2926.02 2299.75,2863.25 2308.55,2784.12C2321.33,2669.37 2303.64,2560.73 2270.73,2455.02C2196.5,2216.63 2045.67,1993 1986,1749.19C1985.54,1748.42 1985.19,1747.59 1984.93,1746.7C1959.48,1656.66 1942.88,1550.58 1941.22,1445.08C1939.53,1338.28 1953.18,1232.09 1988.17,1143.58C1993.11,1131.09 2023.97,1065.44 2050.95,1019.35C2057.26,1008.57 2063.7,998.988 2069.76,991.123C2066.54,989.581 2064.15,986.482 2063.67,982.679C2063.45,980.902 2063.67,979.171 2064.25,977.6Z" style="fill:#fff;"/>
            <g transform="matrix(1,0,0,0.909448,0,71.8037)">
                <path d="M1266.3,2990.14C1258.64,2927.57 1246.92,2818.5 1229.76,2749.76C1220.02,2710.74 1206.19,2684.43 1193.24,2679.45C1165.27,2668.7 1122.74,2663.49 1074.87,2661.62C980.255,2657.95 864.33,2666.91 803.058,2667.4L670.831,2668L632.865,2666.58C628.465,2664.09 622.927,2664.86 619.222,2668.89C612.848,2675.83 614.803,2681.88 618.167,2686.57C619.648,2688.64 625.416,2691.49 626.824,2691.83C626.824,2691.83 670.831,2693.88 670.831,2693.88L803.227,2693.27C864.274,2692.79 979.772,2683.82 1074.04,2687.48C1119.08,2689.23 1159.15,2693.75 1185.47,2703.87C1189.76,2705.52 1192.53,2712.46 1196.19,2721.49C1203.04,2738.33 1209.07,2762.69 1214.5,2790.46C1232.07,2880.24 1242.87,3004.63 1248.98,3036.29C1249.37,3038.31 1255.01,3091.06 1258.29,3111.62C1260.74,3126.97 1272.65,3130.51 1273.87,3130.27C1275.36,3129.97 1283.6,3124.5 1285.09,3110.88C1287.41,3089.64 1289.49,3035.16 1289.51,3032.97C1290.3,2900.57 1292.8,2767.58 1297.71,2634.68C1302.62,2501.89 1309.95,2369.18 1320.4,2237.25L1338.3,2014.94C1338.71,2009.41 1340.35,1995.62 1342.46,1980.16C1343.82,1988.71 1344.74,1994.85 1344.82,1995.48C1357.51,2106.52 1364.1,2370.28 1375.38,2539.89C1379.52,2602.26 1384.37,2652.1 1390.27,2677.61C1391.14,2681.38 1405.76,2696.1 1412.96,2678.81C1413.74,2676.92 1415.21,2672.8 1417.12,2667.08C1425.64,2641.59 1443.92,2582.15 1450.25,2555.69L1488.8,2379.61C1489.55,2405.38 1489.44,2431.13 1488.95,2456.87C1487.75,2519.51 1484.26,2582.11 1484.81,2644.81C1485.31,2702.85 1500.84,2722.8 1527.27,2729.98C1553.03,2736.98 1593.72,2728.47 1650.53,2732.22L1774.93,2739.63L1972.54,2750.92C1979.01,2751.54 1984.72,2746.26 1985.28,2739.15C1985.84,2732.03 1981.04,2725.76 1974.57,2725.14L1775.85,2713.78L1651.94,2706.39C1597.08,2702.77 1557.79,2711.62 1532.91,2704.86C1514.93,2699.97 1508.68,2684.05 1508.33,2644.57C1507.79,2582.13 1511.28,2519.79 1512.47,2457.41C1512.99,2430.39 1513.09,2403.36 1512.26,2376.31C1512.01,2368.34 1514.37,2337.15 1510.93,2319.01C1508.96,2308.64 1504.57,2301.55 1499.74,2298.48C1498.85,2297.92 1484.88,2296.52 1480.85,2310.99C1477.19,2324.13 1469.37,2357.64 1468.91,2359.94C1468.91,2359.94 1427.49,2549.11 1427.49,2549.11C1423.4,2566.24 1414.18,2597.47 1405.98,2623.88C1403.36,2600.07 1401.02,2570.82 1398.84,2538C1387.54,2367.97 1380.89,2103.56 1368.16,1992.25C1367.94,1990.35 1360.26,1940.01 1355.96,1920.46C1353.66,1910 1348.52,1904.96 1347.37,1904.35C1343.49,1902.3 1336.35,1900.7 1331.41,1910.1C1330.5,1911.84 1329.08,1916.09 1327.79,1922.24C1323.1,1944.57 1315.8,2000.01 1314.85,2012.83L1296.95,2235C1286.47,2367.33 1279.13,2500.44 1274.2,2633.63C1269.8,2752.56 1267.34,2871.56 1266.3,2990.14ZM638.672,2674.06C640.02,2678.56 639.049,2683.72 635.781,2687.27C640.322,2682.33 640.316,2677.86 638.672,2674.06Z" style="fill:#fff;"/>
            </g>
        </g>
    </g>
    <rect id="Prancheta3" x="8750" y="0" width="4166.67" height="4166.67" style="fill:none;"/>
    <g id="Prancheta31" serif:id="Prancheta3">
        <path d="M10929.2,3042.36C10929.2,3042.36 11021,3024.03 10999.4,3082.4C10977.9,3140.78 10923.7,3242.03 10923.7,3242.03L10835.6,3309.45L10752.1,3341.12L10708.9,3407.36L10705.6,3496.09C10705.6,3496.09 10709.7,3582.02 10716.7,3575.36C10723.6,3568.7 10785.3,3585.64 10785.3,3585.64L10875.1,3519.81L10956.8,3418.48L11019,3339.45L11089.7,3214.17L11188.5,3057.09L11200.1,3009.5L11185.2,2964.23L11155.4,2922.42L11119.9,2882.14L11111.6,2833.29L11181.6,2751.53L11308.9,2651.28L11370.3,2612.61L11434.3,2546.97L11532.7,2465.77L11606,2371.67L11670.4,2280.91L11725,2240.01L11760,2279.84L11740.2,2358.77L11669.5,2496.34L11598.3,2583.09L11532,2649.58L11447.9,2710.34L11372,2772.25L11298.7,2805.22L11240.4,2848.49L11243.4,2899.52L11291.2,2919.28L11383.1,2877.63L11649.7,2657.8L11781.6,2538.75L11944.6,2289.87L12088.9,2033.55L12185.9,1883.66L12224.6,1781.86L12197.7,1745.16L12136.4,1732.16L12099.1,1713.15L12178,1535.02L12237.5,1484.43L12282.7,1448.91L12292.9,1398.97L12283.3,1340.73L12259,1314.27L12145.2,1325.97L12024.2,1320.9L11831.8,1263.96L11648.1,1156.03L11515.8,1082.76L11420.7,1023.56L11251.5,962.618L11119.2,910.792L10998.1,918.414L10843.5,931.851L10761.7,956.053L10669.1,1112.85L10617.2,1286.92L10604.4,1466.39L10640.3,1673.6L10689.1,1845.95L10738.5,1986.79L10807.9,2126.66L10881.3,2274.76L10932.6,2433.02L10968.7,2577.59L10973.2,2699.23L10972.5,2835.9L10955.9,2966.55L10929.2,3042.36Z" style="fill:#d92626;"/>
        <g id="Camada12" serif:id="Camada1" transform="matrix(1,0,0,1,8655.08,-13.602)">
            <path d="M2124.51,3181.27C2129.78,3183.97 2135.29,3185.61 2140.58,3185.61C2152.78,3185.61 2169.98,3175.49 2187.52,3159.86C2216.73,3133.82 2249.03,3093.43 2262.81,3081.25C2273.29,3071.98 2285.59,3063.49 2297.68,3061.05C2307.88,3058.99 2317.55,3062.42 2325.01,3074.83C2331.6,3085.8 2331.06,3098.67 2327.76,3111.59C2322.18,3133.43 2308.56,3155.42 2299.11,3171.52C2284.48,3196.45 2266.36,3226.61 2244.86,3252.71C2230.98,3269.56 2215.71,3284.72 2198.99,3295.43C2192.86,3299.36 2186.52,3301.98 2179.99,3303.99C2169.16,3307.32 2157.83,3309 2146.06,3311.44C2122.12,3316.41 2101.28,3326.9 2084.76,3341.39C2067.17,3356.81 2054.46,3376.76 2048.12,3399.48C2041.07,3424.72 2037.19,3451.76 2035.82,3478.95C2034.45,3505.97 2035.55,3533.13 2038.4,3558.75C2039.8,3571.23 2043.15,3587.37 2051.42,3599.04C2057.74,3607.94 2066.68,3614.51 2079.28,3616.26C2097.86,3618.83 2121.3,3609.97 2145.27,3594.64C2189.4,3566.44 2236.61,3517.15 2257.88,3496.84C2273.08,3482.33 2287.79,3467.3 2301.74,3451.7C2315.87,3435.92 2329.21,3419.56 2341.5,3402.59C2346.17,3396.15 2350.58,3386.8 2355.36,3377.89C2356.63,3377.01 2357.72,3375.83 2358.54,3374.4C2361.03,3370.01 2363.77,3365.42 2366.74,3360.64L2367.71,3359.74C2369.68,3358.03 2370.89,3355.76 2371.3,3353.37C2407.34,3296.86 2469.3,3217.64 2511.75,3145.61C2536.27,3104.01 2554.26,3064.6 2558.12,3032.97C2561.5,3005.35 2547.66,2981.79 2528.03,2959.87C2504.34,2933.44 2471.49,2909.75 2462.3,2880.37C2458.87,2869.39 2459.34,2857.57 2465.69,2844.37C2474.55,2825.92 2492.96,2806.12 2515.28,2786.22C2563.25,2743.46 2629.26,2701.03 2666.03,2673.21C2695.03,2651.25 2723.67,2628.82 2751.65,2605.74C2779.82,2582.51 2807.32,2558.62 2833.9,2533.92C2864.08,2505.85 2889.83,2476.19 2913.47,2445.44C2949.17,2398.99 2980.01,2350.06 3014.2,2300.49C3021.47,2289.95 3035.91,2272.3 3051.98,2265.32C3059.96,2261.85 3068.45,2261.58 3076.04,2268.82C3092.02,2284.05 3089.96,2310.77 3082.72,2338.93C3071.43,2382.85 3045.14,2430.28 3032.08,2452.4C2995.79,2513.89 2947.99,2571.37 2894.47,2624.32C2841.68,2676.54 2783.32,2724.36 2724.85,2767.25C2694.79,2789.3 2643.74,2801.05 2609.34,2820.28C2597.89,2826.68 2588.13,2833.89 2581.01,2842.23C2559.3,2867.64 2562.62,2898.71 2579.88,2919.92C2595.73,2939.42 2623.63,2950.64 2654.74,2940.46C2677.74,2932.93 2701.36,2919.8 2724.71,2903.79C2774.77,2869.47 2823.72,2821.78 2862.76,2790.81L2990.54,2687.18C3001.85,2677.39 3015.17,2660.77 3029.01,2648.22L3030.47,2646.95L3030.66,2646.82L3040.76,2639.03C3042.26,2638.07 3043.78,2637.22 3045.3,2636.51C3047.72,2635.37 3049.52,2633.46 3050.55,2631.2C3098.69,2592.15 3139.32,2549.41 3175.3,2503.87C3237.66,2424.93 3286,2337.56 3335.39,2246.39L3499.92,1950.6C3516.45,1919.86 3544.49,1887.54 3561.92,1853.69C3570.42,1837.19 3576.48,1820.32 3578.12,1803.15C3579.88,1784.75 3573.47,1772.69 3562.89,1764.2C3544.49,1749.45 3509.08,1748.01 3483.62,1740.64C3470.8,1736.94 3460.97,1731.32 3464.7,1715.83C3469.4,1696.29 3486.37,1649.74 3503.73,1608.56C3515.96,1579.57 3528.3,1553.25 3536.73,1541.36C3552.7,1518.87 3598.33,1504.73 3622.17,1484.16C3631.58,1476.05 3638.07,1467 3640.42,1456.94C3641.36,1452.92 3641.79,1448.63 3641.84,1444.17C3642,1430.86 3638.28,1415.71 3639.36,1403.07C3640.44,1390.46 3643.03,1375.1 3642.19,1360.69C3641.53,1349.26 3638.76,1338.41 3632.46,1329.32C3628.85,1324.11 3623.9,1320.92 3618.16,1319.23C3609.17,1316.59 3597.67,1318.34 3589.05,1319.81C3525.97,1330.57 3464.61,1332.31 3404.01,1325.9C3343.37,1319.48 3283.5,1304.9 3223.41,1283.04C3053.07,1221.08 2912.18,1103.39 2754.23,1019.39C2685.76,982.975 2614.14,952.811 2535.72,935.851C2476.38,923.015 2410.54,914.024 2344.64,911.974C2278.43,909.913 2212.14,914.868 2152.21,929.863C2146.28,931.349 2136.24,935.834 2125.09,941.553C2108.73,949.939 2089.65,961.458 2079.72,967.113C2079.58,964.685 2078.63,962.291 2076.85,960.371C2045.94,927.008 2006.58,900.116 1963.34,878.159C1901.39,846.71 1831.45,825.373 1767.58,809.2C1507,743.217 1266.63,802.375 1081.78,934.648C886.967,1074.06 753.892,1294.81 724.002,1536.01C692.651,1789.01 785.114,2032.79 940.632,2253.39C1158.02,2561.75 1498.62,2824.82 1792.45,3004.34C1855.24,3042.7 1918.32,3081.92 1983.78,3117.12C2027.38,3140.57 2072.04,3162.24 2118.36,3180.71C2120.39,3181.52 2122.52,3181.68 2124.51,3181.27ZM3028.03,2621.37C3078.77,2581.46 3121.05,2537.46 3158.23,2490.39C3219.83,2412.42 3267.48,2326.08 3316.27,2236.03L3480.76,1940.3C3497.24,1909.66 3525.21,1877.47 3542.59,1843.73C3549.77,1829.79 3555.08,1815.59 3556.47,1801.08C3558.45,1780.43 3541.67,1775.04 3523.42,1770.92C3499.05,1765.43 3471.06,1762.85 3456.15,1751.64C3444.88,1743.17 3438.73,1730.79 3443.56,1710.74C3448.4,1690.6 3465.79,1642.57 3483.69,1600.11C3496.69,1569.29 3510.03,1541.41 3519,1528.78C3535.76,1505.16 3582.94,1489.29 3607.97,1467.7C3613.52,1462.91 3617.86,1457.92 3619.25,1451.99L3617.69,1401.22C3618.69,1389.53 3621.26,1375.31 3620.48,1361.95C3620.06,1354.62 3618.63,1347.55 3614.58,1341.71C3613.12,1339.6 3610.45,1339.61 3607.87,1339.53C3602.69,1339.37 3597.18,1340.49 3592.71,1341.25C3527.6,1352.35 3464.27,1354.15 3401.72,1347.53C3339.36,1340.93 3277.77,1325.96 3215.98,1303.48C3044.68,1241.17 2902.86,1123.07 2744.02,1038.59C2677.3,1003.11 2607.54,973.634 2531.13,957.108C2473,944.535 2408.52,935.72 2343.96,933.711C2279.8,931.715 2215.57,936.431 2157.49,950.961C2152.55,952.198 2144.3,956.146 2135.01,960.906C2125.84,965.61 2115.8,971.006 2106.64,975.984C2106.83,976.591 2106.96,977.226 2107.04,977.882C2107.68,983.433 2104.01,988.497 2098.69,989.72C2098.01,990.307 2094.74,993.215 2092.59,995.802C2083.52,1006.7 2071.89,1025.93 2060.14,1047.19C2036.53,1089.93 2012.64,1140.84 2008.39,1151.57C1974.38,1237.63 1961.32,1340.9 1962.96,1444.74C1964.42,1537.33 1977.6,1630.38 1998.24,1712.22C1999.58,1713.62 2000.56,1715.39 2001,1717.42C2055.49,1971.22 2214.7,2201.92 2291.49,2448.56C2325.29,2557.11 2343.28,2668.69 2330.17,2786.53C2321.18,2867.24 2324.97,2931.23 2305.96,2992.72C2300.84,3009.3 2294.1,3025.71 2285.04,3042.2C2291.81,3039.77 2298.6,3038.48 2305.14,3038.71C2319.35,3039.19 2333.01,3045.92 2343.65,3063.64C2353.23,3079.59 2353.63,3098.19 2348.83,3116.97C2342.74,3140.81 2328.18,3164.95 2317.87,3182.52C2302.72,3208.34 2283.91,3239.51 2261.64,3266.54C2246.27,3285.2 2229.25,3301.88 2210.72,3313.74C2202.86,3318.78 2194.75,3322.2 2186.38,3324.78C2174.91,3328.3 2162.93,3330.16 2150.47,3332.74C2130.42,3336.89 2112.93,3345.61 2099.1,3357.74C2084.69,3370.38 2074.26,3386.72 2069.06,3405.34C2062.43,3429.06 2058.83,3454.49 2057.53,3480.05C2056.23,3505.88 2057.29,3531.85 2060.02,3556.34C2060.9,3564.27 2062.53,3574.23 2066.76,3582.46C2069.87,3588.53 2074.53,3593.64 2082.27,3594.72C2101.21,3597.34 2125.62,3583.01 2150.24,3564.77C2187.85,3536.9 2224.85,3498.31 2242.87,3481.11C2257.65,3466.99 2271.97,3452.37 2285.53,3437.2C2299.16,3421.97 2312.03,3406.2 2323.89,3389.83C2329.76,3381.72 2335.11,3368.71 2341.51,3358.25C2343.97,3354.23 2346.58,3350.53 2349.37,3347.41C2384.9,3290.57 2449.29,3208.75 2493.02,3134.57C2515.76,3095.99 2532.95,3059.67 2536.53,3030.33C2539.81,3003.49 2520.39,2982.51 2499.74,2961.64C2476,2937.65 2450.06,2914.08 2441.55,2886.86C2436.6,2871.04 2436.94,2853.98 2446.09,2834.94C2455.93,2814.45 2476,2792.1 2500.81,2769.98C2549.22,2726.83 2615.79,2683.95 2652.9,2655.86C2681.67,2634.09 2710.06,2611.85 2737.81,2588.96C2765.64,2566 2792.83,2542.4 2819.09,2517.99C2848.35,2490.78 2873.31,2462 2896.22,2432.18C2931.7,2386.03 2962.32,2337.4 2996.3,2288.14C3005.25,2275.17 3023.53,2253.97 3043.31,2245.38C3059.18,2238.47 3075.95,2238.68 3091.05,2253.08C3107.79,2269.04 3112.2,2294.01 3108.23,2322.3C3101.04,2373.64 3066.73,2436.47 3050.81,2463.45C3013.6,2526.5 2964.65,2585.48 2909.77,2639.78C2856.22,2692.75 2797.03,2741.28 2737.71,2784.79C2707.03,2807.3 2655.07,2819.63 2619.95,2839.26C2610.95,2844.3 2603.15,2849.8 2597.55,2856.35C2583.62,2872.66 2585.68,2892.59 2596.75,2906.2C2607.57,2919.51 2626.73,2926.74 2647.97,2919.79C2675.84,2910.67 2704.57,2892.46 2732.59,2871.29C2775.07,2839.21 2815.8,2800.3 2849.24,2773.78L2976.31,2670.73C2987.51,2661.04 3000.68,2644.55 3014.4,2632.11C3018.89,2628.03 3023.46,2624.37 3028.03,2621.37ZM2064.25,977.6C2063.02,977.029 2061.88,976.21 2060.89,975.151C2031.67,943.61 1994.38,918.309 1953.49,897.551C1892.98,866.832 1824.63,846.081 1762.24,830.282C1508.51,766.033 1274.43,823.535 1094.44,952.335C904.486,1088.27 774.729,1303.5 745.585,1538.68C714.889,1786.4 806.139,2024.87 958.407,2240.86C1174.11,2546.83 1512.24,2807.66 1803.79,2985.78C1866.24,3023.94 1928.97,3062.95 1994.08,3097.97C2030.65,3117.63 2067.97,3136.03 2106.43,3152.29C2110.28,3148.94 2116.1,3148.69 2120.26,3151.96C2122.44,3153.68 2125.01,3155.78 2127.81,3157.77C2130.08,3157.51 2132.43,3157.96 2134.49,3159.18C2135.53,3158.95 2139,3158.11 2141.34,3157.04C2150.6,3152.85 2162.11,3144.62 2173.32,3135.72C2193.56,3119.64 2212.69,3101.18 2216.22,3097.55C2253.58,3059.15 2273.77,3023.22 2285.18,2986.29C2303.82,2926.02 2299.75,2863.25 2308.55,2784.12C2321.33,2669.37 2303.64,2560.73 2270.73,2455.02C2196.5,2216.63 2045.67,1993 1986,1749.19C1985.54,1748.42 1985.19,1747.59 1984.93,1746.7C1959.48,1656.66 1942.88,1550.58 1941.22,1445.08C1939.53,1338.28 1953.18,1232.09 1988.17,1143.58C1993.11,1131.09 2023.97,1065.44 2050.95,1019.35C2057.26,1008.57 2063.7,998.988 2069.76,991.123C2066.54,989.581 2064.15,986.482 2063.67,982.679C2063.45,980.902 2063.67,979.171 2064.25,977.6Z" style="fill:#d92626;"/>
            <g transform="matrix(1,0,0,0.909448,0,71.8037)">
                <path d="M1266.3,2990.14C1258.64,2927.57 1246.92,2818.5 1229.76,2749.76C1220.02,2710.74 1206.19,2684.43 1193.24,2679.45C1165.27,2668.7 1122.74,2663.49 1074.87,2661.62C980.255,2657.95 864.33,2666.91 803.058,2667.4L670.831,2668L632.865,2666.58C628.465,2664.09 622.927,2664.86 619.222,2668.89C612.848,2675.83 614.803,2681.88 618.167,2686.57C619.648,2688.64 625.416,2691.49 626.824,2691.83C626.824,2691.83 670.831,2693.88 670.831,2693.88L803.227,2693.27C864.274,2692.79 979.772,2683.82 1074.04,2687.48C1119.08,2689.23 1159.15,2693.75 1185.47,2703.87C1189.76,2705.52 1192.53,2712.46 1196.19,2721.49C1203.04,2738.33 1209.07,2762.69 1214.5,2790.46C1232.07,2880.24 1242.87,3004.63 1248.98,3036.29C1249.37,3038.31 1255.01,3091.06 1258.29,3111.62C1260.74,3126.97 1272.65,3130.51 1273.87,3130.27C1275.36,3129.97 1283.6,3124.5 1285.09,3110.88C1287.41,3089.64 1289.49,3035.16 1289.51,3032.97C1290.3,2900.57 1292.8,2767.58 1297.71,2634.68C1302.62,2501.89 1309.95,2369.18 1320.4,2237.25L1338.3,2014.94C1338.71,2009.41 1340.35,1995.62 1342.46,1980.16C1343.82,1988.71 1344.74,1994.85 1344.82,1995.48C1357.51,2106.52 1364.1,2370.28 1375.38,2539.89C1379.52,2602.26 1384.37,2652.1 1390.27,2677.61C1391.14,2681.38 1405.76,2696.1 1412.96,2678.81C1413.74,2676.92 1415.21,2672.8 1417.12,2667.08C1425.64,2641.59 1443.92,2582.15 1450.25,2555.69L1488.8,2379.61C1489.55,2405.38 1489.44,2431.13 1488.95,2456.87C1487.75,2519.51 1484.26,2582.11 1484.81,2644.81C1485.31,2702.85 1500.84,2722.8 1527.27,2729.98C1553.03,2736.98 1593.72,2728.47 1650.53,2732.22L1774.93,2739.63L1972.54,2750.92C1979.01,2751.54 1984.72,2746.26 1985.28,2739.15C1985.84,2732.03 1981.04,2725.76 1974.57,2725.14L1775.85,2713.78L1651.94,2706.39C1597.08,2702.77 1557.79,2711.62 1532.91,2704.86C1514.93,2699.97 1508.68,2684.05 1508.33,2644.57C1507.79,2582.13 1511.28,2519.79 1512.47,2457.41C1512.99,2430.39 1513.09,2403.36 1512.26,2376.31C1512.01,2368.34 1514.37,2337.15 1510.93,2319.01C1508.96,2308.64 1504.57,2301.55 1499.74,2298.48C1498.85,2297.92 1484.88,2296.52 1480.85,2310.99C1477.19,2324.13 1469.37,2357.64 1468.91,2359.94C1468.91,2359.94 1427.49,2549.11 1427.49,2549.11C1423.4,2566.24 1414.18,2597.47 1405.98,2623.88C1403.36,2600.07 1401.02,2570.82 1398.84,2538C1387.54,2367.97 1380.89,2103.56 1368.16,1992.25C1367.94,1990.35 1360.26,1940.01 1355.96,1920.46C1353.66,1910 1348.52,1904.96 1347.37,1904.35C1343.49,1902.3 1336.35,1900.7 1331.41,1910.1C1330.5,1911.84 1329.08,1916.09 1327.79,1922.24C1323.1,1944.57 1315.8,2000.01 1314.85,2012.83L1296.95,2235C1286.47,2367.33 1279.13,2500.44 1274.2,2633.63C1269.8,2752.56 1267.34,2871.56 1266.3,2990.14ZM638.672,2674.06C640.02,2678.56 639.049,2683.72 635.781,2687.27C640.322,2682.33 640.316,2677.86 638.672,2674.06Z" style="fill:#d92626;"/>
            </g>
        </g>
    </g>
</svg>
