<svg id="Capa_1" enable-background="new 0 0 501 501" height="512" viewBox="0 0 501 501" width="512" xmlns="http://www.w3.org/2000/svg"><g><path d="m1.161 274.5c-.773-7.945-1.166-16-1.161-24.149.082-137.594 112.289-247.478 249.857-244.803 133.068 2.588 240.143 111.266 240.143 244.952 0 51.612-15.96 99.497-43.213 138.989-5.512 7.988-14.667 12.678-24.372 12.678h-293.588c-28.623 0-51.827-23.204-51.827-51.827 0-41.885-33.954-75.84-75.839-75.84z" fill="#172a7d"/><path d="m291.993 222h102.007v15h-102.007c-2.594 4.483-7.441 7.5-12.993 7.5-8.284 0-15-6.716-15-15s6.716-15 15-15c5.552 0 10.4 3.017 12.993 7.5zm42.007 95.5c-5.552 0-10.4 3.017-12.993 7.5h-102.007v15h102.007c2.594 4.483 7.441 7.5 12.993 7.5 8.284 0 15-6.716 15-15s-6.716-15-15-15zm0-200.323c8.284 0 15-6.716 15-15s-6.716-15-15-15c-5.552 0-10.4 3.017-12.993 7.5h-102.007v15h102.007c2.593 4.483 7.441 7.5 12.993 7.5zm-110 112.323c0-8.284-6.716-15-15-15-5.133 0-9.663 2.578-12.367 6.509h-16.276c-6.893 0-12.5-5.607-12.5-12.5v-48.657c0-4.142-3.358-7.5-7.5-7.5s-7.5 3.358-7.5 7.5v48.657c0 15.164 12.336 27.5 27.5 27.5h15.125c2.424 5.024 7.566 8.491 13.518 8.491 8.284 0 15-6.715 15-15zm221.331 46.5c-4.142 0-7.5 3.358-7.5 7.5v28.676c0 6.893-5.607 12.5-12.5 12.5h-28.531c-2.636-4.304-7.383-7.176-12.8-7.176-8.284 0-15 6.716-15 15s6.716 15 15 15c5.685 0 10.631-3.162 13.175-7.824h28.156c15.164 0 27.5-12.336 27.5-27.5v-28.676c0-4.142-3.358-7.5-7.5-7.5z" fill="#2740af"/><path d="m300.691 287.81v88.732c0 7.351-5.959 13.31-13.31 13.31h-8.381v20.302h-182.305v-50.248h17.658v-72.096c0-7.351 5.959-13.31 13.31-13.31h159.718c7.351 0 13.31 5.959 13.31 13.31z" fill="#f19b0b"/><path d="m300.691 287.81v70.099c0 7.351-5.959 13.31-13.31 13.31h-133.986c-7.351 0-13.31-5.959-13.31-13.31v-70.099c0-7.351 5.959-13.31 13.31-13.31h133.986c7.351 0 13.31 5.959 13.31 13.31z" fill="#fcb30b"/><path d="m218.365 303.338v57.676c0 3.675-2.98 6.655-6.655 6.655s-6.655-2.98-6.655-6.655v-51.021h-5.673c-3.675 0-6.655-2.98-6.655-6.655s2.98-6.655 6.655-6.655h12.328c3.676 0 6.655 2.98 6.655 6.655zm36.012-6.655h-12.328c-3.675 0-6.655 2.98-6.655 6.655s2.98 6.655 6.655 6.655h5.673v51.021c0 3.675 2.98 6.655 6.655 6.655s6.655-2.98 6.655-6.655v-57.676c0-3.675-2.98-6.655-6.655-6.655zm-72.144 22.157v26.673c0 12.866-10.467 23.333-23.333 23.333s-23.333-10.467-23.333-23.333v-26.673c0-12.866 10.467-23.333 23.333-23.333 12.866-.001 23.333 10.466 23.333 23.333zm-13.31 0c0-5.527-4.496-10.024-10.024-10.024-5.527 0-10.023 4.496-10.023 10.024v26.673c0 5.527 4.496 10.024 10.023 10.024s10.024-4.496 10.024-10.024z" fill="#e27500"/><path d="m487.69 286.186h-159.718c-7.351 0-13.31-5.959-13.31-13.31v-88.732c0-7.351 5.959-13.31 13.31-13.31h159.718c7.351 0 13.31 5.959 13.31 13.31v88.732c0 7.351-5.959 13.31-13.31 13.31zm-127.353 102.962h-159.718c-7.351 0-13.31 5.959-13.31 13.31v86.211c18.5 4.465 37.819 6.831 57.691 6.831 47.186 0 91.257-13.34 128.647-36.454v-56.588c0-7.351-5.959-13.31-13.31-13.31z" fill="#0ab59e"/><path d="m487.69 267.552h-133.986c-7.351 0-13.31-5.959-13.31-13.31v-70.098c0-7.351 5.959-13.31 13.31-13.31h133.986c7.351 0 13.31 5.959 13.31 13.31v70.098c0 7.351-5.959 13.31-13.31 13.31zm-127.353 121.596h-133.986c-7.351 0-13.31 5.959-13.31 13.31v70.099c0 7.351 5.959 13.31 13.31 13.31h86.904c21.494-6.222 41.772-15.309 60.392-26.82v-56.588c0-7.352-5.959-13.311-13.31-13.311z" fill="#0ed1b2"/><path d="m412.019 264.003c-3.675 0-6.655-2.98-6.655-6.655v-51.021h-5.673c-3.675 0-6.655-2.98-6.655-6.655s2.98-6.655 6.655-6.655h12.328c3.675 0 6.655 2.98 6.655 6.655v57.676c0 3.675-2.979 6.655-6.655 6.655zm-29.477-22.157v-26.673c0-12.866-10.467-23.333-23.333-23.333s-23.333 10.467-23.333 23.333v26.673c0 12.866 10.467 23.333 23.333 23.333 12.866.001 23.333-10.466 23.333-23.333zm-13.31-26.673v26.673c0 5.527-4.496 10.024-10.024 10.024-5.527 0-10.024-4.496-10.024-10.024v-26.673c0-5.527 4.496-10.024 10.024-10.024s10.024 4.497 10.024 10.024zm108.78 26.673v-26.673c0-12.866-10.467-23.333-23.333-23.333s-23.333 10.467-23.333 23.333v26.673c0 12.866 10.467 23.333 23.333 23.333 12.866.001 23.333-10.466 23.333-23.333zm-13.31-26.673v26.673c0 5.527-4.496 10.024-10.024 10.024-5.527 0-10.024-4.496-10.024-10.024v-26.673c0-5.527 4.496-10.024 10.024-10.024s10.024 4.497 10.024 10.024zm-114.043 218.314v26.673c0 5.001-1.582 9.64-4.271 13.442-7.756 3.531-15.729 6.668-23.893 9.388-10.556-2.231-18.503-11.62-18.503-22.83v-26.673c0-12.866 10.467-23.333 23.333-23.333 12.867 0 23.334 10.467 23.334 23.333zm-13.31 0c0-5.527-4.496-10.024-10.024-10.024-5.527 0-10.024 4.496-10.024 10.024v26.673c0 5.527 4.496 10.024 10.024 10.024 5.527 0 10.024-4.496 10.024-10.024zm-52.683 48.83c3.675 0 6.655-2.979 6.655-6.655v-57.676c0-3.675-2.98-6.655-6.655-6.655h-12.328c-3.675 0-6.655 2.979-6.655 6.655 0 3.675 2.98 6.655 6.655 6.655h5.673v51.021c0 3.675 2.98 6.655 6.655 6.655zm-34.497-6.655v-57.676c0-3.675-2.98-6.655-6.655-6.655h-12.328c-3.675 0-6.655 2.979-6.655 6.655 0 3.675 2.98 6.655 6.655 6.655h5.673v51.021c0 3.676 2.98 6.655 6.655 6.655s6.655-2.98 6.655-6.655z" fill="#008a80"/><path d="m242.028 159.853h-159.718c-7.351 0-13.31-5.959-13.31-13.31v-88.733c0-7.351 5.959-13.31 13.31-13.31h159.718c7.351 0 13.31 5.959 13.31 13.31v88.732c0 7.352-5.959 13.311-13.31 13.311zm-67.044 229.295h-132.006c33.886 49.28 85.335 85.543 145.316 99.756v-86.446c0-7.351-5.959-13.31-13.31-13.31z" fill="#f02399"/><path d="m242.028 141.219h-133.986c-7.351 0-13.31-5.959-13.31-13.31v-70.099c0-7.351 5.959-13.31 13.31-13.31h133.986c7.351 0 13.31 5.959 13.31 13.31v70.098c0 7.352-5.959 13.311-13.31 13.311zm-67.044 247.929h-94.931c-5.643 0-8.97 6.339-5.759 10.98 28.05 40.535 51.724 70.988 102.169 85.657 6.655-.736 11.831-6.377 11.831-13.228v-70.099c0-7.351-5.959-13.31-13.31-13.31z" fill="#fd4fb6"/><path d="m107.983 137.669c-3.675 0-6.655-2.98-6.655-6.655v-51.021h-5.673c-3.675 0-6.655-2.98-6.655-6.655s2.98-6.655 6.655-6.655h12.328c3.675 0 6.655 2.98 6.655 6.655v57.676c0 3.676-2.98 6.655-6.655 6.655zm65.684-22.156v-26.673c0-12.866-10.467-23.333-23.333-23.333-12.867-.001-23.334 10.467-23.334 23.333v26.673c0 12.866 10.467 23.333 23.333 23.333 12.867.001 23.334-10.467 23.334-23.333zm-13.31-26.673v26.673c0 5.527-4.496 10.024-10.024 10.024s-10.024-4.496-10.024-10.024v-26.673c0-5.527 4.496-10.024 10.024-10.024s10.024 4.497 10.024 10.024zm71.993 26.673v-26.673c0-12.866-10.467-23.333-23.333-23.333s-23.333 10.467-23.333 23.333v26.673c0 12.866 10.467 23.333 23.333 23.333s23.333-10.467 23.333-23.333zm-13.31-26.673v26.673c0 5.527-4.496 10.024-10.024 10.024s-10.024-4.496-10.024-10.024v-26.673c0-5.527 4.496-10.024 10.024-10.024s10.024 4.497 10.024 10.024zm-111.049 364.8v-20.152c0-12.866-10.467-23.333-23.333-23.333-7.196 0-13.641 3.275-17.925 8.412 3.074 3.259 6.237 6.435 9.484 9.522 1.784-2.779 4.901-4.624 8.441-4.624 5.527 0 10.024 4.496 10.024 10.024v10.493c4.323 3.362 8.761 6.584 13.309 9.658zm57.315-20.153v26.673c0 7.62-3.672 14.399-9.339 18.66-13.02-5.081-25.499-11.244-37.326-18.377-.001-.094-.002-.188-.002-.283v-26.673c0-12.866 10.467-23.333 23.333-23.333s23.334 10.467 23.334 23.333zm-13.31 0c0-5.527-4.496-10.024-10.024-10.024s-10.024 4.496-10.024 10.024v26.673c0 5.527 4.496 10.024 10.024 10.024s10.024-4.496 10.024-10.024z" fill="#d80d80"/><path d="m115.338 287.81v88.732c0 7.351-5.959 13.31-13.31 13.31h-58.564c-23.12-33.373-38.163-72.766-42.303-115.352h100.867c7.351 0 13.31 5.959 13.31 13.31zm331.684 101.338h-61.05c-7.351 0-13.31 5.959-13.31 13.31v57.194c29.468-18.025 54.831-42.103 74.36-70.504z" fill="#05a2f9"/><path d="m115.338 287.81v70.099c0 7.351-5.959 13.31-13.31 13.31h-41.731c-7.506 0-14.433-4.176-17.803-10.883-13.194-26.263-21.803-55.224-24.779-85.836h84.313c7.351 0 13.31 5.959 13.31 13.31zm331.684 101.338h-35.318c-7.351 0-13.31 5.959-13.31 13.31v39.09c18.643-14.988 35.046-32.648 48.628-52.4z" fill="#49b4fa"/><path d="m19.702 346.919v-36.926h-5.672c-3.675 0-6.655-2.979-6.655-6.655s2.98-6.655 6.655-6.655h12.328c3.675 0 6.655 2.979 6.655 6.655v57.676c0 2.585-1.474 4.825-3.626 5.927-3.52-6.502-6.753-13.182-9.685-20.022zm72.648-28.079v26.673c0 12.866-10.467 23.333-23.333 23.333s-23.333-10.467-23.333-23.333v-26.673c0-12.866 10.467-23.333 23.333-23.333 12.866-.001 23.333 10.466 23.333 23.333zm-13.31 0c0-5.527-4.496-10.024-10.023-10.024s-10.024 4.497-10.024 10.024v26.673c0 5.527 4.496 10.024 10.024 10.024 5.527 0 10.023-4.496 10.023-10.024zm338.169 91.314c-12.866 0-23.333 10.467-23.333 23.333v11.608c4.566-3.499 9.005-7.154 13.31-10.959v-.649c0-5.527 4.496-10.024 10.024-10.024.418 0 .829.026 1.233.076 3.408-3.416 6.716-6.932 9.919-10.544-3.316-1.81-7.116-2.841-11.153-2.841z" fill="#0280e3"/></g></svg>