<svg xmlns="http://www.w3.org/2000/svg" viewBox="0 0 1000 1000"><title>Prancheta 2</title><g id="Camada_1" data-name="Camada 1"><path d="M891.72,372.47A23.76,23.76,0,0,0,870,405.88L626.46,560.79l35.36-91,121-77a23.61,23.61,0,1,0-3.77-5.9L657.09,464.52a3.47,3.47,0,0,0-1.38,1.69L616.49,567.14l-158.86,101-44-98.14a3.52,3.52,0,0,0-5.11-1.5l-55,35.86a3.5,3.5,0,0,0-1.42,4l7.1,22.58c-2.47,3.61-5.2,7.75-8.22,12.51-24.24,38.28-57,89.95-41,108,3.66,4.15,11.11,5.1,26,7,23.65,3,37.31.63,55,0,41.44-1.46,65.63,8.21,68.78,3.42L496,766.71a3.49,3.49,0,0,0,3.26-1.38,3.49,3.49,0,0,0,.39-3.52l-39.11-87.2a3.65,3.65,0,0,0,.34-.18l93.79-59.66L675.42,612a3.42,3.42,0,0,0,1.79-.54l105.53-66.7a23.61,23.61,0,1,0-3.75-5.91L674.29,605l-108.23,2.51L873.78,411.78a23.75,23.75,0,1,0,17.94-39.31Zm-90.81-13.41a17.44,17.44,0,1,1-17.44,17.44A17.43,17.43,0,0,1,800.91,359.06ZM490.66,758.94l-36.29-4.82c-3.8-3-9.22-6.72-15.4-11.65-8.81-7-42.22-33.61-54-65-13.3-35.44,4.73-67-3-70-1-.39-4.8-1.17-17.7,16.32l-4.71-15,49.35-32.17ZM800.91,511.72a17.44,17.44,0,1,1-17.44,17.44A17.43,17.43,0,0,1,800.91,511.72Zm90.66-98.5A17.44,17.44,0,1,1,909,395.79,17.43,17.43,0,0,1,891.57,413.22Z"/><path d="M818.34,529.16a17.44,17.44,0,1,1-17.43-17.44A17.43,17.43,0,0,1,818.34,529.16Z"/><path d="M909,395.79a17.44,17.44,0,1,1-17.44-17.44A17.43,17.43,0,0,1,909,395.79Z"/><path d="M818.34,376.5a17.44,17.44,0,1,1-17.43-17.44A17.43,17.43,0,0,1,818.34,376.5Z"/><path d="M588.89,741h-277l289-451.41a41.31,41.31,0,0,0-12.52-57h0A41.19,41.19,0,0,0,566.92,226l-.78,0H241.8a18.5,18.5,0,0,0,0,37h278L231.59,713.24a41.29,41.29,0,0,0,12.52,57h0A41.14,41.14,0,0,0,258.48,776a18.4,18.4,0,0,0,8.25,2H588.89a18.5,18.5,0,0,0,0-37Z"/></g></svg>